<?xml version="1.0" encoding="UTF-8" standalone="no"?>
<!DOCTYPE svg PUBLIC "-//W3C//DTD SVG 20010904//EN" "http://www.w3.org/TR/2001/REC-SVG-20010904/DTD/svg10.dtd">
<svg version="1.0" xmlns="http://www.w3.org/2000/svg" width="477.000000pt" height="1515.000000pt" viewBox="0 0 477.000000 1515.000000" preserveAspectRatio="xMidYMid meet">
<metadata>
Created by potrace 1.16, written by Peter Selinger 2001-2019
</metadata>
<g transform="translate(0.000000,1515.000000) scale(0.100000,-0.100000)" fill="#000000" stroke="none">
<path d="M1702 15127 c-49 -11 -121 -70 -159 -130 -37 -58 -51 -158 -45 -317 12 -283 -4 -1180 -28 -1660 -4 -91 -6 -257 -3 -370 6 -246 4 -641 -2 -690 -13 -90 -24 -527 -21 -825 2 -181 -1 -375 -6 -430 -5 -55 -11 -264 -13 -465 -1 -201 -5 -378 -8 -395 -3 -16 -8 -64 -12 -106 -3 -42 -7 -84 -9 -95 -9 -47 -28 -802 -25 -1021 0 -80 -16 -100 -27 -33 -4 22 -11 43 -15 46 -5 3 -7 9 -4 14 3 5 1 28 -4 52 -20 90 -24 138 -36 365 -3 48 -7 102 -9 118 -11 70 -18 101 -27 111 -5 7 -9 16 -8 20 1 5 -3 22 -9 37 -7 16 -12 32 -12 37 0 13 -34 70 -42 70 -5 0 -8 6 -8 13 0 13 -43 57 -56 57 -4 0 -15 7 -25 16 -43 39 -193 47 -262 14 -23 -11 -49 -25 -57 -32 -23 -19 -74 -88 -65 -88 4 0 3 -6 -3 -13 -18 -21 -42 -145 -44 -221 -1 -81 7 -151 27 -240 8 -33 16 -81 19 -106 3 -25 10 -79 15 -120 6 -41 20 -151 31 -245 11 -93 27 -199 35 -235 8 -36 16 -88 19 -116 3 -29 12 -80 20 -115 8 -35 17 -100 21 -144 9 -104 31 -240 50 -301 19 -61 41 -171 50 -244 10 -81 27 -131 90 -268 31 -68 54 -126 51 -129 -10 -10 -56 39 -71 74 -8 18 -23 43 -35 55 -12 13 -33 43 -47 68 -14 25 -42 70 -61 100 -54 83 -176 319 -197 380 -1 3 -12 27 -24 54 -13 27 -24 58 -25 70 -2 12 -8 30 -14 41 -6 12 -20 60 -32 109 -16 68 -18 91 -9 102 9 11 8 14 -4 14 -10 0 -23 19 -34 51 -34 98 -139 179 -233 178 -85 0 -129 -14 -171 -55 -40 -39 -91 -129 -95 -168 -21 -199 -11 -322 34 -408 15 -29 40 -87 56 -128 16 -41 35 -91 43 -110 23 -53 30 -72 43 -110 24 -69 182 -377 255 -495 14 -22 29 -50 35 -62 5 -13 14 -23 20 -23 5 0 10 -7 10 -15 0 -9 7 -18 15 -21 8 -4 15 -12 15 -19 0 -7 4 -15 9 -17 4 -1 19 -24 32 -50 49 -97 441 -497 494 -504 6 -1 20 -2 31 -3 30 -1 33 -19 45 -241 5 -107 14 -253 19 -325 6 -71 14 -186 19 -255 20 -270 23 -308 31 -385 4 -44 6 -149 4 -233 -2 -84 1 -192 7 -240 6 -48 12 -121 15 -162 2 -41 8 -102 13 -135 5 -33 8 -87 7 -120 -1 -33 2 -85 7 -115 4 -30 10 -94 11 -141 4 -95 14 -169 26 -184 4 -5 11 -59 15 -120 13 -205 22 -281 44 -363 10 -36 9 -52 -10 -115 -14 -45 -23 -108 -26 -167 -2 -52 -9 -122 -17 -155 -16 -67 -14 -131 3 -164 7 -12 9 -32 5 -44 -8 -25 -7 -298 2 -372 3 -27 6 -89 8 -137 1 -52 7 -93 15 -102 7 -8 10 -19 7 -25 -3 -5 -2 -21 4 -35 8 -21 7 -26 -6 -26 -12 0 -14 -5 -8 -17 9 -18 9 -58 4 -418 -2 -184 -2 -289 0 -310 1 -5 4 -66 6 -135 2 -69 7 -141 9 -160 2 -19 7 -70 10 -113 2 -43 8 -83 12 -90 3 -6 7 -22 9 -36 1 -14 5 -57 8 -96 4 -38 8 -108 10 -155 2 -47 5 -88 5 -92 2 -15 103 -37 228 -49 99 -10 177 -10 334 -2 201 10 205 11 270 43 l66 33 12 66 c21 117 31 250 30 382 0 41 5 97 11 125 12 53 18 170 24 479 2 110 7 247 12 305 9 129 9 169 0 290 -5 70 -1 142 14 274 15 127 18 187 11 210 -10 31 -7 357 4 551 3 55 6 154 6 220 0 66 0 154 1 195 0 41 -1 91 -2 110 -6 82 0 200 10 200 4 0 7 12 7 28 0 15 3 38 6 52 17 66 28 855 13 965 -21 160 -15 819 7 842 5 5 71 -15 152 -47 70 -27 179 -45 270 -44 223 1 460 16 492 30 17 8 36 14 42 14 29 0 195 93 381 214 64 42 196 167 331 316 140 153 247 308 335 480 56 111 140 357 159 469 3 19 10 43 16 53 6 11 13 29 15 41 2 12 11 51 19 87 50 212 49 270 -8 353 -45 65 -78 81 -183 92 -83 8 -110 -2 -164 -61 -44 -48 -67 -107 -80 -204 -5 -41 -12 -97 -16 -125 -4 -32 -23 -80 -54 -135 -55 -99 -80 -149 -80 -162 0 -13 -83 -135 -121 -178 -17 -19 -38 -47 -48 -62 -59 -92 -325 -375 -436 -462 -75 -59 -343 -204 -420 -227 -21 -7 -54 -4 -107 7 -79 17 -94 27 -58 39 39 12 117 84 155 141 21 33 78 111 125 174 48 63 101 142 118 175 90 172 200 528 264 850 11 55 14 397 5 516 -5 58 -1 97 13 158 11 45 25 146 30 224 6 78 13 158 16 177 4 28 6 516 2 555 -1 12 10 111 22 190 5 33 11 105 15 160 11 180 17 260 21 267 7 12 15 120 19 253 2 72 6 144 8 160 9 57 17 170 22 319 5 140 10 188 23 210 9 16 10 45 16 339 3 152 7 281 10 286 7 10 7 258 1 340 -3 36 -12 78 -20 94 -8 17 -15 36 -15 44 0 7 -26 40 -58 72 -49 49 -67 60 -111 70 -117 25 -177 13 -247 -51 -82 -75 -110 -153 -113 -309 -2 -92 -7 -119 -25 -131 -6 -4 -6 -11 1 -20 16 -21 13 -88 -12 -313 -13 -115 -27 -271 -30 -345 -3 -74 -7 -148 -9 -165 -2 -16 -7 -91 -11 -165 -4 -74 -9 -138 -12 -143 -2 -4 -6 -40 -8 -80 -5 -89 -14 -191 -20 -237 -14 -102 -35 -407 -40 -595 -6 -176 -18 -290 -40 -385 -7 -30 -16 -82 -20 -115 -4 -32 -8 -62 -11 -66 -2 -4 -6 -60 -9 -126 -3 -65 -10 -161 -16 -213 -5 -52 -14 -149 -19 -215 -11 -144 -16 -181 -35 -260 -8 -33 -22 -96 -30 -140 -21 -107 -50 -195 -95 -285 -20 -41 -43 -91 -50 -110 -30 -79 -63 -145 -99 -199 -20 -31 -52 -81 -69 -112 -39 -68 -165 -194 -234 -233 l-52 -29 -23 29 c-51 64 -86 175 -77 249 3 22 17 110 32 195 24 142 26 174 24 390 -2 129 -7 262 -12 296 -6 33 -12 85 -15 115 -4 30 -13 88 -21 129 -12 59 -14 112 -9 245 21 571 15 1038 -15 1245 -15 105 -25 406 -22 679 2 193 -1 273 -13 335 -25 136 -34 299 -28 551 11 465 2 891 -22 1055 -11 73 -7 357 5 420 17 86 15 428 -3 585 -9 80 -11 163 -7 250 4 72 4 175 1 230 -5 101 -6 233 0 360 1 39 -1 97 -5 130 -4 33 -9 107 -11 165 -3 58 -7 121 -11 140 -3 19 -7 121 -8 225 -2 105 -8 214 -14 243 -25 115 -95 211 -182 249 -43 18 -121 22 -178 10z"/>
<path d="M1467 14895 c-3 -16 0 -24 7 -22 14 4 21 47 8 47 -5 0 -12 -11 -15 -25z"/>
</g>
</svg>