<?xml version="1.0" encoding="UTF-8" standalone="no"?>
<!DOCTYPE svg PUBLIC "-//W3C//DTD SVG 20010904//EN" "http://www.w3.org/TR/2001/REC-SVG-20010904/DTD/svg10.dtd">
<svg version="1.0" xmlns="http://www.w3.org/2000/svg" width="1647.000000pt" height="789.000000pt" viewBox="0 0 1647.000000 789.000000" preserveAspectRatio="xMidYMid meet">
<metadata>
Created by potrace 1.16, written by Peter Selinger 2001-2019
</metadata>
<g transform="translate(0.000000,789.000000) scale(0.100000,-0.100000)" fill="#000000" stroke="none">
<path d="M4030 7867 c-10 -10 -203 -58 -293 -73 -49 -8 -105 -21 -125 -30 -90 -38 -196 -73 -240 -80 -26 -3 -92 -21 -147 -39 -95 -30 -136 -38 -365 -65 -109 -14 -401 -26 -840 -35 -272 -6 -371 -13 -575 -44 -27 -4 -81 -21 -120 -38 -38 -17 -86 -36 -105 -42 -19 -6 -60 -31 -90 -56 -30 -25 -60 -45 -67 -45 -6 0 -20 11 -30 24 -118 153 -196 226 -240 226 -66 0 -156 -59 -190 -124 -45 -88 -63 -166 -63 -290 -1 -76 5 -140 13 -171 13 -44 13 -54 -1 -85 -8 -19 -34 -84 -57 -145 -100 -256 -129 -327 -185 -448 -80 -171 -94 -246 -93 -482 1 -137 6 -205 22 -283 l20 -104 -33 -66 c-67 -137 -167 -426 -171 -501 -2 -25 -8 -77 -15 -116 -26 -161 36 -296 164 -359 93 -45 154 -66 195 -66 22 0 42 -4 45 -9 3 -5 30 -14 58 -21 29 -7 76 -24 103 -39 28 -15 66 -33 85 -41 41 -16 96 -56 160 -115 66 -62 235 -167 283 -176 80 -16 240 -10 298 10 71 24 172 75 188 95 8 9 48 40 91 70 82 58 124 104 160 176 43 87 96 146 163 184 81 45 150 98 247 190 175 167 207 185 260 149 74 -51 205 -172 239 -221 22 -32 65 -82 96 -112 56 -55 109 -133 220 -325 32 -55 88 -146 126 -203 37 -56 88 -143 114 -192 25 -50 75 -133 111 -186 35 -52 82 -131 104 -174 22 -44 58 -110 81 -146 l40 -66 -34 -51 c-19 -29 -54 -90 -78 -136 -30 -59 -70 -113 -129 -176 -47 -50 -121 -140 -165 -200 -46 -64 -137 -167 -215 -245 -74 -74 -191 -194 -260 -266 -131 -137 -150 -150 -294 -208 -46 -19 -106 -49 -134 -68 -28 -18 -89 -55 -137 -83 -96 -55 -143 -97 -200 -180 -40 -58 -46 -86 -32 -160 l8 -41 -78 -44 c-43 -25 -104 -67 -136 -93 -32 -27 -91 -70 -131 -97 -130 -86 -170 -157 -170 -305 0 -79 14 -124 50 -166 12 -14 12 -21 -1 -52 -40 -96 -1 -175 90 -184 73 -7 105 -21 105 -48 0 -23 19 -44 59 -65 37 -19 319 -42 359 -29 19 6 54 8 84 4 52 -7 48 -8 188 52 19 9 66 22 103 29 69 13 152 54 209 102 17 15 63 43 102 63 113 57 199 174 390 526 73 133 180 272 240 308 15 10 61 26 102 36 40 10 94 29 121 42 26 13 66 28 88 32 22 4 74 23 115 42 41 19 93 40 115 47 22 7 60 25 85 41 36 23 140 60 145 52 1 -1 -3 -48 -8 -104 l-10 -102 43 -138 c24 -76 63 -177 87 -225 57 -112 69 -202 32 -236 -19 -19 -35 -22 -106 -22 -68 0 -103 -6 -195 -36 -112 -37 -114 -38 -189 -114 -49 -49 -81 -91 -89 -115 -14 -42 -8 -173 10 -238 23 -77 108 -141 214 -158 59 -10 293 14 354 35 36 13 48 13 80 2 75 -27 204 -23 397 10 90 16 220 58 230 74 3 5 43 34 89 64 100 66 141 111 192 213 37 73 39 81 42 187 3 80 -2 149 -17 242 -25 155 -28 371 -7 484 32 170 67 570 76 865 5 175 12 273 21 300 l14 40 110 -3 c74 -3 133 1 180 12 42 9 171 19 320 26 138 6 286 17 330 25 44 8 184 33 310 55 127 22 349 67 495 99 270 61 613 124 730 136 135 14 396 66 577 114 220 59 654 161 684 161 22 0 22 -2 17 -182 -3 -101 -2 -242 3 -314 25 -388 30 -638 19 -1019 -6 -214 -16 -413 -21 -441 -13 -67 -61 -167 -90 -188 -35 -24 -190 -82 -294 -109 -49 -14 -135 -40 -190 -60 -55 -19 -143 -47 -195 -62 -52 -15 -135 -45 -183 -67 -94 -41 -294 -103 -442 -137 -154 -36 -239 -89 -290 -182 -25 -47 -30 -67 -33 -152 l-4 -98 40 -39 c47 -44 123 -66 200 -57 36 4 47 1 67 -18 60 -61 332 -85 455 -42 59 21 74 22 155 15 50 -5 169 -10 265 -11 l175 -2 135 44 c129 42 312 114 375 148 17 8 55 28 85 44 30 16 105 62 165 103 61 41 146 96 190 123 116 69 166 124 337 366 100 142 161 330 178 552 15 199 30 299 56 374 14 41 32 104 40 140 9 36 29 107 45 156 147 452 152 463 245 585 31 41 75 113 96 160 53 116 61 130 140 234 39 50 84 110 102 133 17 23 36 44 43 47 15 6 182 -182 240 -270 59 -90 161 -202 272 -298 97 -85 553 -558 600 -622 67 -94 388 -325 470 -340 56 -10 240 -92 282 -124 30 -25 41 -44 62 -112 14 -46 28 -105 31 -133 4 -27 16 -95 26 -150 11 -55 27 -148 35 -207 9 -59 31 -164 50 -234 20 -70 34 -128 33 -129 -19 -16 -74 -34 -118 -40 -82 -10 -197 -70 -237 -123 -30 -39 -33 -50 -33 -111 0 -44 5 -74 16 -89 19 -28 119 -96 187 -128 46 -22 61 -23 132 -18 77 6 83 5 158 -30 94 -44 202 -61 357 -53 79 3 122 11 174 30 81 30 117 62 147 131 18 43 21 68 21 171 -1 66 -8 170 -16 230 -34 239 -47 369 -61 580 -8 121 -19 245 -24 275 -5 30 -16 102 -26 160 -40 256 -169 668 -233 750 -15 19 -55 49 -88 65 -76 38 -360 305 -398 375 -47 86 -97 251 -111 365 -7 61 -32 193 -54 295 -22 102 -45 212 -51 245 -7 33 -36 121 -65 195 -29 74 -56 151 -59 170 -4 19 -18 80 -31 135 -13 55 -26 143 -30 195 -3 52 -9 110 -12 128 l-5 33 55 -25 c99 -44 197 -106 265 -170 63 -59 134 -116 220 -177 20 -15 99 -61 175 -104 76 -42 193 -113 260 -158 67 -44 143 -88 168 -98 193 -74 503 -136 829 -165 251 -23 312 -21 403 12 40 14 115 40 167 56 52 17 123 49 157 70 34 21 89 50 123 63 159 62 395 272 508 450 34 55 98 172 142 260 82 167 121 284 175 530 56 257 59 279 45 410 -15 143 -29 194 -81 293 -82 156 -142 244 -199 289 -67 53 -122 74 -265 103 -92 19 -131 22 -235 17 -243 -10 -503 -78 -627 -163 -69 -48 -173 -180 -207 -264 -15 -36 -31 -99 -36 -140 -5 -41 -14 -99 -20 -129 -5 -29 -10 -74 -10 -100 0 -93 105 -258 193 -302 34 -18 54 -21 126 -17 94 4 139 23 162 65 11 20 10 35 -1 81 -7 31 -15 105 -17 163 -6 129 3 149 85 214 93 74 210 105 268 72 40 -22 154 -135 164 -162 6 -15 12 -93 13 -174 l2 -146 -41 -85 c-23 -47 -55 -114 -72 -150 -27 -56 -56 -89 -207 -235 -201 -194 -250 -227 -414 -274 -315 -91 -614 -17 -816 200 -32 35 -88 102 -125 149 -37 47 -99 113 -138 148 -82 72 -202 213 -267 311 -39 60 -116 139 -430 446 -39 39 -116 130 -170 203 -92 125 -105 138 -201 203 -57 39 -142 105 -189 147 -144 129 -184 158 -294 218 -58 31 -180 107 -271 167 -91 61 -212 136 -270 167 -58 32 -161 88 -230 125 -252 136 -541 266 -710 318 -366 113 -476 141 -605 151 -38 3 -140 15 -225 26 -85 10 -220 26 -300 35 -80 8 -224 28 -320 45 -96 16 -204 30 -240 30 -36 0 -101 6 -145 14 -111 20 -642 20 -736 0 -53 -10 -156 -12 -505 -7 -287 4 -493 2 -594 -6 -300 -22 -646 -51 -720 -60 -135 -18 -372 -40 -545 -51 -93 -6 -204 -15 -245 -20 -189 -24 -307 -32 -378 -26 -42 4 -131 10 -197 15 -131 9 -150 16 -284 91 -47 27 -123 61 -168 75 -46 14 -120 36 -165 50 -45 14 -134 46 -198 72 -102 40 -126 46 -215 50 -55 3 -102 3 -105 0z"/>
</g>
</svg>