<?xml version="1.0" encoding="UTF-8" standalone="no"?>
<!-- Uploaded to: SVG Repo, www.svgrepo.com, Generator: SVG Repo Mixer Tools -->

<svg
   fill="#000000"
   height="390.46588"
   width="176.15208"
   version="1.2"
   id="statistics_by_Adioma"
   viewBox="0 0 56.368667 124.94908"
   xml:space="preserve"
   sodipodi:docname="individuo.svg"
   inkscape:version="1.1.2 (0a00cf5339, 2022-02-04)"
   xmlns:inkscape="http://www.inkscape.org/namespaces/inkscape"
   xmlns:sodipodi="http://sodipodi.sourceforge.net/DTD/sodipodi-0.dtd"
   xmlns="http://www.w3.org/2000/svg"
   xmlns:svg="http://www.w3.org/2000/svg"><defs
   id="defs7" /><sodipodi:namedview
   id="namedview5"
   pagecolor="#ffffff"
   bordercolor="#666666"
   borderopacity="1.0"
   inkscape:pageshadow="2"
   inkscape:pageopacity="0.0"
   inkscape:pagecheckerboard="0"
   showgrid="false"
   fit-margin-top="0"
   fit-margin-left="0"
   fit-margin-right="0"
   fit-margin-bottom="0"
   inkscape:zoom="0.66379649"
   inkscape:cx="223.71314"
   inkscape:cy="207.1418"
   inkscape:window-width="2560"
   inkscape:window-height="1019"
   inkscape:window-x="0"
   inkscape:window-y="31"
   inkscape:window-maximized="1"
   inkscape:current-layer="statistics_by_Adioma" />
<path
   d="M 26.1,23.7 C 32.7,23.7 38,18.3 38,11.8 38,5.3 32.7,0 26.1,0 19.5,0 14.3,5.3 14.3,11.8 c 0,6.5 5.3,11.9 11.8,11.9 z m 14.1,2.4 H 13.7 C 5.2,26.1 0,33 0,41.5 v 27.8 c 0,7 9.4,7 9.4,0 V 42.5 h 3 V 113 c 0,3.6 3,6.6 6.6,6.6 3.6,0 6.6,-3 6.6,-6.6 V 74.2 h 3 v 38.7 c 0,3.6 3,6.6 6.6,6.6 3.6,0 6.6,-3 6.6,-6.6 V 42.4 h 3 v 26.8 c 0,7.2 9.4,7.2 9.2,0 V 41.6 C 54,33.8 49.4,26.1 40.2,26.1 Z m 16.168665,98.84908 c -83.333333,-87.600001 -41.666667,-43.800001 0,0 z"
   id="path2"
   sodipodi:nodetypes="ssssssssssccsssccsssccscsscc" />
</svg>
