<?xml version="1.0" encoding="UTF-8" standalone="no"?>
<!-- Created with Inkscape (http://www.inkscape.org/) -->

<svg
   version="1.1"
   width="468.99524mm"
   height="185.04626mm"
   viewBox="0 0 468.99524 185.04626"
   id="svg8"
   xmlns="http://www.w3.org/2000/svg"
   xmlns:svg="http://www.w3.org/2000/svg">
  <defs
     id="defs2" />
  <g
     transform="translate(-11.383604,-94.708518)"
     id="layer1">
    <path
       d="m 246.58876,277.50667 c -3.17403,-2.79388 -7.22064,-8.86547 -9.4037,-14.10942 -0.94762,-2.27629 -2.94632,-8.44957 -4.44154,-13.71841 l -2.71859,-9.57969 -1.65475,0.28645 c -11.27418,1.95164 -40.34799,2.78458 -67.26752,1.92717 -30.65827,-0.97649 -50.00065,-3.40354 -67.117772,-8.42181 -2.555306,-0.74915 -10.689238,-2.87687 -18.075407,-4.72828 -7.386175,-1.8514 -15.805163,-4.31613 -18.708868,-5.47717 -2.903706,-1.16105 -6.31526,-2.27378 -7.58123,-2.47274 -3.096755,-0.4867 -7.375316,-1.98893 -16.941641,-5.94831 -4.409948,-1.82522 -9.34107,-3.74833 -10.958049,-4.27357 -8.170493,-2.65403 -11.314979,-5.71947 -9.831784,-9.58461 0.468488,-1.22086 3.06649,-1.05024 4.26991,0.28043 2.063945,2.28217 4.695648,3.15035 9.549621,3.15035 5.122497,0 5.82319,-0.63482 2.954975,-2.67717 -2.821636,-2.00918 -1.597205,-2.32048 7.583397,-1.92799 7.987578,0.34149 12.765849,-0.095 12.718486,-1.16174 -0.03126,-0.70393 -16.373718,-12.64219 -20.090084,-14.67592 -2.02401,-1.10761 -5.123088,-2.46521 -6.88684,-3.0169 -2.766657,-0.86539 -3.351605,-0.90166 -4.261617,-0.26427 -1.298084,0.90922 -3.589808,0.95933 -4.451782,0.0974 -0.892785,-0.89278 -0.800755,-3.16954 0.185005,-4.57691 2.195906,-3.13509 7.91413,-5.07975 18.416953,-6.26325 9.373957,-1.0563 11.153621,-1.49269 19.796635,-4.85437 24.681857,-9.59996 52.613422,-17.51039 77.222202,-21.8699 20.67419,-3.66249 38.6106,-5.23408 59.06656,-5.17543 18.30419,0.0525 16.93019,0.92311 30.23706,-19.15976 3.60383,-5.43893 7.64717,-11.21195 8.98521,-12.82894 1.33803,-1.61698 3.58414,-4.50349 4.99134,-6.41446 2.7935,-3.793556 6.04129,-5.927786 7.58141,-4.981996 0.4714,0.28948 3.32917,3.75387 6.35063,7.698646 6.76471,8.83194 11.03578,13.22133 20.8325,21.4096 4.18944,3.50162 7.61717,6.59156 7.61717,6.86653 0,0.92154 -4.49128,3.07849 -10.56862,5.07561 -5.61159,1.84405 -10.77176,4.58307 -11.19805,5.94391 -0.12112,0.38666 1.81455,0.69985 5.6992,0.92211 7.55249,0.43212 25.44594,2.69093 34.99864,4.41812 4.09123,0.73972 14.31428,2.91242 22.71792,4.82824 18.67318,4.25701 30.17195,6.61852 32.22726,6.61852 1.95154,0 3.89837,-0.99553 9.14924,-4.67859 5.03708,-3.53312 7.74729,-4.44692 11.95644,-4.03135 6.55304,0.64698 10.65972,4.54835 8.98363,8.53454 l -0.69347,1.6493 -6.86845,0.2321 c -5.41171,0.18288 -7.37862,0.46311 -9.27386,1.32126 l -2.40543,1.08914 3.70747,1.16233 c 5.25595,1.64779 14.05351,3.09864 24.78757,4.08788 13.01912,1.19982 14.4898,0.8173 27.34046,-7.11125 3.2018,-1.97544 7.9248,-4.79442 10.49554,-6.2644 2.57074,-1.46998 8.78324,-5.544 13.80553,-9.05336 11.81929,-8.25881 17.99532,-12.0295 24.05859,-14.68865 5.10138,-2.23729 13.77546,-4.60059 15.06683,-4.10504 1.16094,0.44549 0.89136,1.90771 -1.12887,6.12322 -1.02899,2.14714 -1.87089,4.32563 -1.87089,4.8411 0,0.51547 -1.31972,5.31404 -2.93272,10.6635 -5.44568,18.06033 -6.68348,24.48472 -6.68682,34.70597 -0.003,8.59532 0.69961,11.76148 6.41472,28.91407 5.17998,15.54658 6.1894,19.09715 7.19521,25.30908 l 0.66916,4.13265 -1.84825,0.34673 c -5.03412,0.94441 -12.29836,-1.20269 -21.52015,-6.36074 -15.32265,-8.57047 -39.08047,-22.17314 -44.9013,-25.70848 -15.21648,-9.2419 -18.45439,-9.82096 -34.47775,-6.16581 -3.82196,0.87185 -8.07968,1.84112 -9.4616,2.15394 -2.7445,0.62126 -3.92787,1.61227 -3.44083,2.88148 0.43863,1.14306 2.63991,1.87627 7.16071,2.3851 4.28112,0.48185 6.54352,1.61049 6.54352,3.26434 0,1.5689 -2.83991,5.77481 -9.3948,13.91374 -3.17273,3.93941 -8.25492,11.09376 -11.29382,15.89857 -7.5782,11.98187 -7.90268,12.37828 -10.13211,12.37828 -2.98178,0 -5.9857,-1.95761 -12.21441,-7.95995 -6.93119,-6.67925 -17.14379,-15.91684 -18.80193,-17.00686 -1.04481,-0.68683 -2.13529,-0.54291 -10.42352,1.37573 -16.91545,3.91575 -28.9822,5.55703 -40.65913,5.53032 -4.32107,-0.01 -7.48381,0.20249 -7.67728,0.51553 -0.18095,0.2928 0.40829,1.29333 1.30944,2.22342 1.32591,1.36851 1.75178,2.42202 2.23272,5.52323 1.03536,6.67679 -0.54081,14.10552 -4.78479,22.55127 -1.12907,2.24691 -2.35093,5.04746 -2.71526,6.22344 -1.42457,4.59831 -3.40163,5.11059 -7.11358,1.84319 z M 139.14645,231.86982 c 1.41748,-0.77337 4.14078,-2.74601 6.05176,-4.38365 5.87175,-5.03189 10.24359,-8.43851 14.50875,-11.3055 4.34792,-2.92261 7.40735,-6.13449 7.40735,-7.77643 0,-1.39636 -2.69282,-3.76277 -5.15296,-4.52835 -1.13482,-0.35315 -4.8974,-0.91483 -8.36128,-1.24818 -9.96344,-0.95881 -19.02204,0.4338 -35.04572,5.38776 -8.68469,2.68499 -5.93141,2.52605 3.47862,-0.20082 11.98132,-3.47199 18.23563,-4.58328 25.72325,-4.57062 10.45513,0.0177 16.79785,1.47946 18.25804,4.20786 0.86072,1.60828 -1.28597,4.17504 -6.56843,7.85372 -2.58493,1.80014 -6.72985,4.93185 -9.21092,6.95936 -9.58681,7.83426 -11.73078,9.33066 -14.56172,10.16352 -3.63349,1.06896 -4.77246,0.76428 -9.98566,-2.67123 -2.35197,-1.54996 -5.09397,-3.10049 -6.09332,-3.44564 -2.17504,-0.75118 -2.19203,-0.75242 -2.19203,-0.15982 0,0.25725 0.68773,0.60527 1.52831,0.77339 0.84057,0.16811 3.08787,1.37338 4.994,2.67836 1.90613,1.30499 4.16503,2.76697 5.01979,3.24885 2.23392,1.25939 6.92012,0.80806 10.20217,-0.98258 z"
       id="path4537"
       style="fill:#000000;fill-opacity:1;stroke:#000026;stroke-width:0.307894;stroke-linejoin:miter;stroke-miterlimit:10;stroke-dasharray:none;stroke-opacity:1" />
  </g>
</svg>
