<?xml version="1.0" encoding="utf-8"?><!-- Uploaded to: SVG Repo, www.svgrepo.com, Generator: SVG Repo Mixer Tools -->
<svg fill="#000000" width="800px" height="800px" viewBox="0 0 24 24" id="eggs" data-name="Flat Line" xmlns="http://www.w3.org/2000/svg" class="icon flat-line"><path id="secondary" d="M15,15A6,6,0,0,1,3,15,18.58,18.58,0,0,1,4.82,7.5C5.82,5.05,7,3,9,3s3.18,2.05,4.18,4.5A18.58,18.58,0,0,1,15,15Z" style="fill: rgb(44, 169, 188); stroke-width: 2;"></path><path id="primary" d="M13,19.71a6.39,6.39,0,0,0,1.09.24c3.25.41,6.27-1.63,6.73-4.56a15.13,15.13,0,0,0-.75-6.86c-.65-2.29-1.49-4.25-3.49-4.5-1.56-.2-2.76.78-3.85,2.2" style="fill: none; stroke: rgb(0, 0, 0); stroke-linecap: round; stroke-linejoin: round; stroke-width: 2;"></path><path id="primary-2" data-name="primary" d="M15,15A6,6,0,0,1,3,15,18.58,18.58,0,0,1,4.82,7.5C5.82,5.05,7,3,9,3s3.18,2.05,4.18,4.5A18.58,18.58,0,0,1,15,15Z" style="fill: none; stroke: rgb(0, 0, 0); stroke-linecap: round; stroke-linejoin: round; stroke-width: 2;"></path></svg>