<?xml version="1.0" encoding="iso-8859-1"?>
<!-- Uploaded to: SVG Repo, www.svgrepo.com, Generator: SVG Repo Mixer Tools -->
<svg height="800px" width="800px" version="1.1" id="Layer_1" xmlns="http://www.w3.org/2000/svg" xmlns:xlink="http://www.w3.org/1999/xlink" 
	 viewBox="0 0 512 512" xml:space="preserve">
<g transform="translate(1 1)">
	<g>
		<path style="fill:#FFE100;" d="M297.667,75.8c-5.12,0-8.533-3.413-8.533-8.533s3.413-8.533,8.533-8.533
			c9.387,0,17.067-7.68,17.067-17.067S307.053,24.6,297.667,24.6c-5.12,0-8.533-3.413-8.533-8.533s3.413-8.533,8.533-8.533
			c18.773,0,34.133,15.36,34.133,34.133S316.44,75.8,297.667,75.8z"/>
		<path style="fill:#FFE100;" d="M306.2,161.133c-2.56,0-4.267-0.853-5.973-2.56c-3.413-3.413-3.413-8.533,0-11.947l25.6-25.6
			c3.413-3.413,8.533-3.413,11.947,0s3.413,8.533,0,11.947l-25.6,25.6C310.467,160.28,308.76,161.133,306.2,161.133z"/>
		<path style="fill:#FFE100;" d="M323.267,511c-2.56,0-4.267-0.853-5.973-2.56l-25.6-25.6c-3.413-3.413-3.413-8.533,0-11.947
			c3.413-3.413,8.533-3.413,11.947,0l25.6,25.6c3.413,3.413,3.413,8.533,0,11.947C327.533,510.147,325.827,511,323.267,511z"/>
		<path style="fill:#FFE100;" d="M348.867,331.8H306.2c-5.12,0-8.533-3.413-8.533-8.533c0-5.12,3.413-8.533,8.533-8.533h42.667
			c5.12,0,8.533,3.413,8.533,8.533C357.4,328.387,353.987,331.8,348.867,331.8z"/>
		<path style="fill:#FFE100;" d="M314.733,229.4c-2.56,0-4.267-0.853-5.973-2.56c-3.413-3.413-3.413-8.533,0-11.947l25.6-25.6
			c3.413-3.413,8.533-3.413,11.947,0s3.413,8.533,0,11.947l-25.6,25.6C319,228.547,317.293,229.4,314.733,229.4z"/>
		<path style="fill:#FFE100;" d="M340.333,289.133c-2.56,0-4.267-0.853-5.973-2.56l-25.6-25.6c-3.413-3.413-3.413-8.533,0-11.947
			s8.533-3.413,11.947,0l25.6,25.6c3.413,3.413,3.413,8.533,0,11.947C344.6,288.28,342.893,289.133,340.333,289.133z"/>
		<path style="fill:#FFE100;" d="M306.2,391.533c-2.56,0-5.12-1.707-6.827-3.413c-2.56-4.267-1.707-9.387,2.56-11.947l25.6-17.067
			c4.267-2.56,9.387-1.707,11.947,2.56s1.707,9.387-2.56,11.947l-25.6,17.067C309.613,390.68,307.907,391.533,306.2,391.533z"/>
		<path style="fill:#FFE100;" d="M331.8,442.733c-1.707,0-3.413-0.853-5.12-1.707l-25.6-17.067c-4.267-2.56-5.12-7.68-2.56-11.947
			s7.68-5.12,11.947-2.56l25.6,17.067c4.267,2.56,5.12,7.68,2.56,11.947C336.92,441.027,334.36,442.733,331.8,442.733z"/>
		<path style="fill:#FFE100;" d="M212.333,75.8c-18.773,0-34.133-15.36-34.133-34.133s15.36-34.133,34.133-34.133
			c5.12,0,8.533,3.413,8.533,8.533s-3.413,8.533-8.533,8.533c-9.387,0-17.067,7.68-17.067,17.067s7.68,17.067,17.067,17.067
			c5.12,0,8.533,3.413,8.533,8.533S217.453,75.8,212.333,75.8z"/>
		<path style="fill:#FFE100;" d="M203.8,161.133c-2.56,0-4.267-0.853-5.973-2.56l-25.6-25.6c-3.413-3.413-3.413-8.533,0-11.947
			c3.413-3.413,8.533-3.413,11.947,0l25.6,25.6c3.413,3.413,3.413,8.533,0,11.947C208.067,160.28,206.36,161.133,203.8,161.133z"/>
		<path style="fill:#FFE100;" d="M186.733,511c-2.56,0-4.267-0.853-5.973-2.56c-3.413-3.413-3.413-8.533,0-11.947l25.6-25.6
			c3.413-3.413,8.533-3.413,11.947,0c3.413,3.413,3.413,8.533,0,11.947l-25.6,25.6C191,510.147,189.293,511,186.733,511z"/>
		<path style="fill:#FFE100;" d="M203.8,331.8h-42.667c-5.12,0-8.533-3.413-8.533-8.533c0-5.12,3.413-8.533,8.533-8.533H203.8
			c5.12,0,8.533,3.413,8.533,8.533C212.333,328.387,208.92,331.8,203.8,331.8z"/>
		<path style="fill:#FFE100;" d="M195.267,229.4c-2.56,0-4.267-0.853-5.973-2.56l-25.6-25.6c-3.413-3.413-3.413-8.533,0-11.947
			s8.533-3.413,11.947,0l25.6,25.6c3.413,3.413,3.413,8.533,0,11.947C199.533,228.547,197.827,229.4,195.267,229.4z"/>
		<path style="fill:#FFE100;" d="M169.667,289.133c-2.56,0-4.267-0.853-5.973-2.56c-3.413-3.413-3.413-8.533,0-11.947l25.6-25.6
			c3.413-3.413,8.533-3.413,11.947,0s3.413,8.533,0,11.947l-25.6,25.6C173.933,288.28,172.227,289.133,169.667,289.133z"/>
		<path style="fill:#FFE100;" d="M203.8,391.533c-1.707,0-3.413-0.853-5.12-1.707l-25.6-17.067c-4.267-2.56-5.12-7.68-2.56-11.947
			c2.56-4.267,7.68-5.12,11.947-2.56l25.6,17.067c4.267,2.56,5.12,7.68,2.56,11.947C208.92,389.827,206.36,391.533,203.8,391.533z"
			/>
		<path style="fill:#FFE100;" d="M178.2,442.733c-2.56,0-5.12-1.707-6.827-3.413c-2.56-4.267-1.707-9.387,2.56-11.947l25.6-17.067
			c4.267-2.56,9.387-1.707,11.947,2.56c2.56,4.267,1.707,9.387-2.56,11.947l-25.6,17.067
			C181.613,441.88,179.907,442.733,178.2,442.733z"/>
		<path style="fill:#FFE100;" d="M297.667,459.8c0,18.773-18.773,34.133-42.667,34.133s-42.667-15.36-42.667-34.133
			s18.773-34.133,42.667-34.133S297.667,441.027,297.667,459.8"/>
		<path style="fill:#FFE100;" d="M306.2,391.533c0,18.773-23.04,34.133-51.2,34.133s-51.2-15.36-51.2-34.133S226.84,357.4,255,357.4
			S306.2,372.76,306.2,391.533"/>
		<path style="fill:#FFE100;" d="M306.2,314.733c0,23.893-23.04,42.667-51.2,42.667s-51.2-18.773-51.2-42.667
			c0-23.893,23.04-42.667,51.2-42.667S306.2,290.84,306.2,314.733"/>
		<path style="fill:#FFE100;" d="M314.733,229.4c0,23.893-26.453,42.667-59.733,42.667s-59.733-18.773-59.733-42.667
			S221.72,186.733,255,186.733S314.733,205.507,314.733,229.4"/>
		<path style="fill:#FFE100;" d="M212.333,67.267c0-18.773,18.773-34.133,42.667-34.133s42.667,15.36,42.667,34.133
			S278.893,101.4,255,101.4S212.333,86.04,212.333,67.267"/>
		<path style="fill:#FFE100;" d="M203.8,144.067c0-23.893,23.04-42.667,51.2-42.667s51.2,18.773,51.2,42.667
			s-23.04,42.667-51.2,42.667S203.8,167.96,203.8,144.067"/>
	</g>
	<g>
		<path style="fill:#FFA800;" d="M255,425.667c-2.56,0-5.973,0-8.533,0.853c19.627,3.413,34.133,17.067,34.133,33.28
			s-14.507,29.867-34.133,33.28c2.56,0.853,5.973,0.853,8.533,0.853c23.893,0,42.667-15.36,42.667-34.133
			S278.893,425.667,255,425.667"/>
		<path style="fill:#FFA800;" d="M255,357.4c-2.56,0-5.973,0-8.533,0.853c23.893,2.56,42.667,17.067,42.667,33.28
			c0,17.067-18.773,30.72-42.667,33.28c2.56,0,5.973,0.853,8.533,0.853c28.16,0,51.2-15.36,51.2-34.133S283.16,357.4,255,357.4"/>
		<path style="fill:#FFA800;" d="M255,272.067c-2.56,0-5.973,0-8.533,0.853c23.893,3.413,42.667,20.48,42.667,41.813
			c0,21.333-18.773,38.4-42.667,41.813c2.56,0,5.973,0.853,8.533,0.853c28.16,0,51.2-18.773,51.2-42.667
			C306.2,290.84,283.16,272.067,255,272.067"/>
		<path style="fill:#FFA800;" d="M255,186.733c-2.56,0-5.973,0-8.533,0.853c29.013,2.56,51.2,20.48,51.2,41.813
			s-22.187,39.253-51.2,41.813c2.56,0,5.973,0.853,8.533,0.853c33.28,0,59.733-18.773,59.733-42.667S288.28,186.733,255,186.733"/>
		<path style="fill:#FFA800;" d="M255,33.133c-2.56,0-5.973,0-8.533,0.853C266.093,37.4,280.6,51.053,280.6,67.267
			s-14.507,29.867-34.133,33.28c2.56,0.853,5.973,0.853,8.533,0.853c23.893,0,42.667-15.36,42.667-34.133S278.893,33.133,255,33.133
			"/>
		<path style="fill:#FFA800;" d="M255,101.4c-2.56,0-5.973,0-8.533,0.853c23.893,3.413,42.667,20.48,42.667,41.813
			s-18.773,38.4-42.667,41.813c2.56,0,5.973,0.853,8.533,0.853c28.16,0,51.2-18.773,51.2-42.667S283.16,101.4,255,101.4"/>
	</g>
	<g>
		<path style="fill:#FFFFFF;" d="M255,425.667c2.56,0,5.973,0,8.533,0.853c-19.627,3.413-34.133,17.067-34.133,33.28
			s14.507,29.867,34.133,33.28c-2.56,0.853-5.973,0.853-8.533,0.853c-23.893,0-42.667-15.36-42.667-34.133
			S231.107,425.667,255,425.667"/>
		<path style="fill:#FFFFFF;" d="M255,357.4c2.56,0,5.973,0,8.533,0.853c-23.893,2.56-42.667,17.067-42.667,33.28
			c0,17.067,18.773,30.72,42.667,33.28c-2.56,0-5.973,0.853-8.533,0.853c-28.16,0-51.2-15.36-51.2-34.133S226.84,357.4,255,357.4"/>
		<path style="fill:#FFFFFF;" d="M255,272.067c2.56,0,5.973,0,8.533,0.853c-23.893,3.413-42.667,20.48-42.667,41.813
			c0,21.333,18.773,38.4,42.667,41.813c-2.56,0-5.973,0.853-8.533,0.853c-28.16,0-51.2-18.773-51.2-42.667
			C203.8,290.84,226.84,272.067,255,272.067"/>
		<path style="fill:#FFFFFF;" d="M255,186.733c2.56,0,5.973,0,8.533,0.853c-29.013,2.56-51.2,20.48-51.2,41.813
			s22.187,39.253,51.2,41.813c-2.56,0-5.973,0.853-8.533,0.853c-33.28,0-59.733-18.773-59.733-42.667S221.72,186.733,255,186.733"/>
		<path style="fill:#FFFFFF;" d="M255,33.133c2.56,0,5.973,0,8.533,0.853C243.907,37.4,229.4,51.053,229.4,67.267
			s14.507,29.867,34.133,33.28c-2.56,0.853-5.973,0.853-8.533,0.853c-23.893,0-42.667-15.36-42.667-34.133
			S231.107,33.133,255,33.133"/>
		<path style="fill:#FFFFFF;" d="M255,101.4c2.56,0,5.973,0,8.533,0.853c-23.893,3.413-42.667,20.48-42.667,41.813
			s18.773,38.4,42.667,41.813c-2.56,0-5.973,0.853-8.533,0.853c-28.16,0-51.2-18.773-51.2-42.667S226.84,101.4,255,101.4"/>
	</g>
	<path d="M255,502.467c-28.16,0-51.2-18.773-51.2-42.667c0-23.893,23.04-42.667,51.2-42.667s51.2,18.773,51.2,42.667
		C306.2,483.693,283.16,502.467,255,502.467z M255,434.2c-18.773,0-34.133,11.093-34.133,25.6s15.36,25.6,34.133,25.6
		s34.133-11.093,34.133-25.6S273.773,434.2,255,434.2z"/>
	<path d="M255,434.2c-33.28,0-59.733-18.773-59.733-42.667S221.72,348.867,255,348.867s59.733,18.773,59.733,42.667
		S288.28,434.2,255,434.2z M255,365.933c-23.04,0-42.667,11.947-42.667,25.6s19.627,25.6,42.667,25.6s42.667-11.947,42.667-25.6
		S278.04,365.933,255,365.933z"/>
	<path d="M255,365.933c-33.28,0-59.733-23.04-59.733-51.2c0-28.16,26.453-51.2,59.733-51.2s59.733,23.04,59.733,51.2
		C314.733,342.893,288.28,365.933,255,365.933z M255,280.6c-23.893,0-42.667,15.36-42.667,34.133
		c0,18.773,18.773,34.133,42.667,34.133s42.667-15.36,42.667-34.133C297.667,295.96,278.893,280.6,255,280.6z"/>
	<path d="M255,280.6c-37.547,0-68.267-23.04-68.267-51.2s30.72-51.2,68.267-51.2s68.267,23.04,68.267,51.2S292.547,280.6,255,280.6z
		 M255,195.267c-28.16,0-51.2,15.36-51.2,34.133s23.04,34.133,51.2,34.133s51.2-15.36,51.2-34.133S283.16,195.267,255,195.267z"/>
	<path d="M255,109.933c-28.16,0-51.2-18.773-51.2-42.667S226.84,24.6,255,24.6s51.2,18.773,51.2,42.667S283.16,109.933,255,109.933z
		 M255,41.667c-18.773,0-34.133,11.093-34.133,25.6s15.36,25.6,34.133,25.6s34.133-11.093,34.133-25.6S273.773,41.667,255,41.667z"
		/>
	<path d="M255,195.267c-33.28,0-59.733-23.04-59.733-51.2s26.453-51.2,59.733-51.2s59.733,23.04,59.733,51.2
		S288.28,195.267,255,195.267z M255,109.933c-23.893,0-42.667,15.36-42.667,34.133S231.107,178.2,255,178.2
		s42.667-15.36,42.667-34.133S278.893,109.933,255,109.933z"/>
	<path d="M212.333,67.267c-18.773,0-34.133-15.36-34.133-34.133S193.56-1,212.333-1c5.12,0,8.533,3.413,8.533,8.533
		s-3.413,8.533-8.533,8.533c-9.387,0-17.067,7.68-17.067,17.067s7.68,17.067,17.067,17.067c5.12,0,8.533,3.413,8.533,8.533
		S217.453,67.267,212.333,67.267z"/>
	<path d="M297.667,67.267c-5.12,0-8.533-3.413-8.533-8.533s3.413-8.533,8.533-8.533c9.387,0,17.067-7.68,17.067-17.067
		s-7.68-17.067-17.067-17.067c-5.12,0-8.533-3.413-8.533-8.533S292.547-1,297.667-1C316.44-1,331.8,14.36,331.8,33.133
		S316.44,67.267,297.667,67.267z"/>
	<path d="M203.8,152.6c-2.56,0-4.267-0.853-5.973-2.56l-25.6-25.6c-3.413-3.413-3.413-8.533,0-11.947
		c3.413-3.413,8.533-3.413,11.947,0l25.6,25.6c3.413,3.413,3.413,8.533,0,11.947C208.067,151.747,206.36,152.6,203.8,152.6z"/>
	<path d="M195.267,220.867c-2.56,0-4.267-0.853-5.973-2.56l-25.6-25.6c-3.413-3.413-3.413-8.533,0-11.947s8.533-3.413,11.947,0
		l25.6,25.6c3.413,3.413,3.413,8.533,0,11.947C199.533,220.013,197.827,220.867,195.267,220.867z"/>
	<path d="M169.667,280.6c-2.56,0-4.267-0.853-5.973-2.56c-3.413-3.413-3.413-8.533,0-11.947l25.6-25.6
		c3.413-3.413,8.533-3.413,11.947,0s3.413,8.533,0,11.947l-25.6,25.6C173.933,279.747,172.227,280.6,169.667,280.6z"/>
	<path d="M306.2,152.6c-2.56,0-4.267-0.853-5.973-2.56c-3.413-3.413-3.413-8.533,0-11.947l25.6-25.6
		c3.413-3.413,8.533-3.413,11.947,0s3.413,8.533,0,11.947l-25.6,25.6C310.467,151.747,308.76,152.6,306.2,152.6z"/>
	<path d="M186.733,502.467c-2.56,0-4.267-0.853-5.973-2.56c-3.413-3.413-3.413-8.533,0-11.947l25.6-25.6
		c3.413-3.413,8.533-3.413,11.947,0c3.413,3.413,3.413,8.533,0,11.947l-25.6,25.6C191,501.613,189.293,502.467,186.733,502.467z"/>
	<path d="M323.267,502.467c-2.56,0-4.267-0.853-5.973-2.56l-25.6-25.6c-3.413-3.413-3.413-8.533,0-11.947
		c3.413-3.413,8.533-3.413,11.947,0l25.6,25.6c3.413,3.413,3.413,8.533,0,11.947C327.533,501.613,325.827,502.467,323.267,502.467z"
		/>
	<path d="M203.8,323.267h-42.667c-5.12,0-8.533-3.413-8.533-8.533c0-5.12,3.413-8.533,8.533-8.533H203.8
		c5.12,0,8.533,3.413,8.533,8.533C212.333,319.853,208.92,323.267,203.8,323.267z"/>
	<path d="M348.867,323.267H306.2c-5.12,0-8.533-3.413-8.533-8.533c0-5.12,3.413-8.533,8.533-8.533h42.667
		c5.12,0,8.533,3.413,8.533,8.533C357.4,319.853,353.987,323.267,348.867,323.267z"/>
	<path d="M314.733,220.867c-2.56,0-4.267-0.853-5.973-2.56c-3.413-3.413-3.413-8.533,0-11.947l25.6-25.6
		c3.413-3.413,8.533-3.413,11.947,0s3.413,8.533,0,11.947l-25.6,25.6C319,220.013,317.293,220.867,314.733,220.867z"/>
	<path d="M340.333,280.6c-2.56,0-4.267-0.853-5.973-2.56l-25.6-25.6c-3.413-3.413-3.413-8.533,0-11.947s8.533-3.413,11.947,0
		l25.6,25.6c3.413,3.413,3.413,8.533,0,11.947C344.6,279.747,342.893,280.6,340.333,280.6z"/>
	<path d="M306.2,383c-2.56,0-5.12-1.707-6.827-3.413c-2.56-4.267-1.707-9.387,2.56-11.947l25.6-17.067
		c4.267-2.56,9.387-1.707,11.947,2.56c2.56,4.267,1.707,9.387-2.56,11.947l-25.6,17.067C309.613,382.147,307.907,383,306.2,383z"/>
	<path d="M331.8,434.2c-1.707,0-3.413-0.853-5.12-1.707l-25.6-17.067c-4.267-2.56-5.12-7.68-2.56-11.947s7.68-5.12,11.947-2.56
		l25.6,17.067c4.267,2.56,5.12,7.68,2.56,11.947C336.92,432.493,334.36,434.2,331.8,434.2z"/>
	<path d="M203.8,383c-1.707,0-3.413-0.853-5.12-1.707l-25.6-17.067c-4.267-2.56-5.12-7.68-2.56-11.947
		c2.56-4.267,7.68-5.12,11.947-2.56l25.6,17.067c4.267,2.56,5.12,7.68,2.56,11.947C208.92,381.293,206.36,383,203.8,383z"/>
	<path d="M178.2,434.2c-2.56,0-5.12-1.707-6.827-3.413c-2.56-4.267-1.707-9.387,2.56-11.947l25.6-17.067
		c4.267-2.56,9.387-1.707,11.947,2.56s1.707,9.387-2.56,11.947l-25.6,17.067C181.613,433.347,179.907,434.2,178.2,434.2z"/>
</g>
</svg>