<?xml version="1.0" encoding="iso-8859-1"?>
<!-- Uploaded to: SVG Repo, www.svgrepo.com, Generator: SVG Repo Mixer Tools -->
<svg height="800px" width="800px" version="1.1" id="Layer_1" xmlns="http://www.w3.org/2000/svg" xmlns:xlink="http://www.w3.org/1999/xlink" 
	 viewBox="0 0 503.578 503.578" xml:space="preserve">
<g transform="translate(1 1)">
	<g>
		<path style="fill:#FFE100;" d="M7.506,284.348c-2.518,0-5.036-0.839-6.715-3.357c-2.518-3.357-2.518-9.233,1.679-11.751
			l41.967-33.574c1.679-0.839,3.357-1.679,5.036-1.679h58.754c5.036,0,8.393,3.357,8.393,8.393s-3.357,8.393-8.393,8.393H52.831
			L13.382,282.67C10.864,283.509,9.185,284.348,7.506,284.348z"/>
		<path style="fill:#FFE100;" d="M217.342,124.873C217.342,124.873,216.503,124.873,217.342,124.873l-62.111-5.875
			c-21.823-1.679-42.807-9.233-61.272-21.823C77.172,86.263,62.903,70.316,52.831,52.689L33.526,19.116
			c-1.679-3.357-0.839-8.393,3.357-10.911c4.197-1.679,9.233-0.839,11.751,3.357l19.305,33.574
			c9.233,15.108,20.984,28.538,36.092,38.61c15.948,10.911,34.413,16.787,53.718,18.466l61.272,5.875
			c4.197,0.839,8.393,4.197,7.554,9.233C224.896,121.516,221.539,124.873,217.342,124.873z"/>
		<path style="fill:#FFE100;" d="M494.326,284.348c-1.679,0-3.357-0.839-5.036-1.679l-40.289-31.895h-55.397
			c-5.036,0-8.393-3.357-8.393-8.393s3.357-8.393,8.393-8.393h58.754c1.679,0,3.357,0.839,5.036,1.679l41.967,33.574
			c3.357,2.518,4.197,8.393,1.679,11.751C499.362,283.509,496.844,284.348,494.326,284.348z"/>
		<path style="fill:#FFE100;" d="M284.49,124.873c-4.197,0-7.554-3.357-8.393-7.554c0-5.036,3.357-8.393,7.554-9.233l61.272-5.875
			c19.305-1.679,37.77-8.393,53.718-18.466c15.108-10.072,26.859-23.502,36.092-38.61l19.305-33.574
			c1.679-4.197,6.715-5.036,10.911-3.357c4.197,2.518,5.036,7.554,3.357,11.751l-19.305,33.574
			c-10.072,17.626-24.341,32.734-41.128,44.485c-18.466,11.751-39.449,19.305-61.272,21.823L284.49,124.873
			C285.329,124.873,284.49,124.873,284.49,124.873z"/>
		<path style="fill:#FFE100;" d="M349.119,178.591c-22.662-28.538-54.557-49.521-89.81-59.593l-8.393-2.518l-8.393,2.518
			c-35.252,10.072-67.148,31.056-89.81,59.593C105.71,238.184,32.687,346.46,32.687,452.217c0,0,0,65.469,83.934,33.574
			c0,0,99.882-43.646,134.295-92.328c34.413,48.682,134.295,92.328,134.295,92.328c83.934,31.895,83.934-33.574,83.934-33.574
			C469.146,346.46,396.123,238.184,349.119,178.591"/>
	</g>
	<path style="fill:#FFA800;" d="M349.119,178.591c-22.662-28.538-54.557-49.521-89.81-59.593l-8.393-2.518l-8.393,2.518
		c-1.679,0-2.518,0.839-4.197,1.679c33.574,10.911,62.951,31.056,84.774,57.915c47.003,58.754,120.026,167.869,120.026,273.626
		c0,0,0,34.413-32.734,41.128c58.754,9.233,58.754-41.128,58.754-41.128C469.146,346.46,396.123,237.345,349.119,178.591"/>
	<path style="fill:#FFFFFF;" d="M152.713,178.591c22.662-28.538,54.557-49.521,89.81-59.593l8.393-2.518l8.393,2.518
		c1.679,0,2.518,0.839,4.197,1.679c-33.574,10.911-62.951,31.056-84.774,57.915C130.89,237.345,57.867,346.46,57.867,452.217
		c0,0,0,34.413,32.734,41.128c-57.915,9.233-57.915-41.128-57.915-41.128C32.687,346.46,105.71,238.184,152.713,178.591"/>
	<g>
		<path style="fill:#FFE100;" d="M250.916,116.479v276.984"/>
		<path style="fill:#FFE100;" d="M208.949,82.906c0-18.466,18.466-33.574,41.967-33.574s41.967,15.108,41.967,33.574
			s-18.466,33.574-41.967,33.574S208.949,101.371,208.949,82.906"/>
	</g>
	<path style="fill:#FFA800;" d="M250.916,49.332c-2.518,0-5.875,0-8.393,0.839c19.305,3.357,33.574,16.787,33.574,32.734
		s-14.269,29.377-33.574,32.734c2.518,0.839,5.875,0.839,8.393,0.839c23.502,0,41.967-15.108,41.967-33.574
		S274.418,49.332,250.916,49.332"/>
	<path style="fill:#FFFFFF;" d="M250.916,49.332c2.518,0,5.875,0,8.393,0.839c-19.305,3.357-33.574,16.787-33.574,32.734
		s14.269,29.377,33.574,32.734c-2.518,0.839-5.875,0.839-8.393,0.839c-23.502,0-41.967-15.108-41.967-33.574
		S227.414,49.332,250.916,49.332"/>
	<g>
		<path style="fill:#63D3FD;" d="M175.375,368.283c0,18.466-15.108,33.574-33.574,33.574s-33.574-15.108-33.574-33.574
			s15.108-33.574,33.574-33.574S175.375,349.817,175.375,368.283"/>
		<path style="fill:#63D3FD;" d="M393.605,368.283c0,18.466-15.108,33.574-33.574,33.574s-33.574-15.108-33.574-33.574
			s15.108-33.574,33.574-33.574S393.605,349.817,393.605,368.283"/>
	</g>
	<g>
		<path style="fill:#3DB9F9;" d="M360.031,334.709c-4.197,0-8.393,0.839-12.59,2.518c12.59,5.036,20.984,16.787,20.984,31.056
			s-8.393,26.02-20.984,31.056c4.197,1.679,8.393,2.518,12.59,2.518c18.466,0,33.574-15.108,33.574-33.574
			S378.496,334.709,360.031,334.709"/>
		<path style="fill:#3DB9F9;" d="M141.801,334.709c-4.197,0-8.393,0.839-12.59,2.518c12.59,5.036,20.984,16.787,20.984,31.056
			s-8.393,26.02-20.984,31.056c4.197,1.679,8.393,2.518,12.59,2.518c18.466,0,33.574-15.108,33.574-33.574
			S160.267,334.709,141.801,334.709"/>
	</g>
	<path d="M425.5,502.578L425.5,502.578c-12.59,0-26.859-3.357-42.807-9.233c-4.197-1.679-91.488-40.289-130.938-86.452
		c-40.289,46.164-126.741,84.774-130.938,86.452c-16.787,5.875-31.056,9.233-43.646,9.233c-41.967,0-52.879-32.734-52.879-50.361
		c0-109.954,76.38-221.587,121.705-278.662c24.341-30.216,57.075-52.039,94.007-62.951l8.393-2.518c1.679-0.839,3.357-0.839,4.197,0
		l8.393,2.518c37.77,10.911,70.505,32.734,94.007,62.951c46.164,57.075,122.544,168.708,122.544,278.662
		C477.539,469.843,466.628,502.578,425.5,502.578z M250.916,385.07L250.916,385.07c2.518,0,5.036,1.679,6.715,3.357
		c32.734,47.003,130.098,88.97,130.938,89.81c13.429,5.036,26.02,7.554,36.931,7.554c34.413,0,35.252-30.216,35.252-33.574
		c0-104.079-73.862-213.193-118.348-268.59c-21.823-27.698-52.039-47.003-85.613-57.075l-5.875-1.679l-5.875,1.679
		c-34.413,10.072-63.79,29.377-85.613,57.075C114.942,239.024,41.08,347.299,41.08,452.217c0,3.357,1.679,33.574,35.252,33.574
		c10.072,0,22.662-2.518,36.931-8.393c0.839,0,97.364-42.807,130.098-88.97C245.88,386.748,248.398,385.07,250.916,385.07z"/>
	<path d="M250.916,401.856c-5.036,0-8.393-3.357-8.393-8.393V116.479c0-5.036,3.357-8.393,8.393-8.393
		c5.036,0,8.393,3.357,8.393,8.393v276.984C259.31,398.499,255.952,401.856,250.916,401.856z"/>
	<path d="M250.916,124.873c-27.698,0-50.361-18.466-50.361-41.967s22.662-41.967,50.361-41.967
		c27.698,0,50.361,18.466,50.361,41.967S278.614,124.873,250.916,124.873z M250.916,57.725c-18.466,0-33.574,10.911-33.574,25.18
		s15.108,25.18,33.574,25.18s33.574-10.911,33.574-25.18S269.382,57.725,250.916,57.725z"/>
	<path d="M208.949,82.906c-18.466,0-33.574-15.108-33.574-33.574s15.108-33.574,33.574-33.574c5.036,0,8.393,3.357,8.393,8.393
		s-3.357,8.393-8.393,8.393c-9.233,0-16.787,7.554-16.787,16.787s7.554,16.787,16.787,16.787c5.036,0,8.393,3.357,8.393,8.393
		S213.985,82.906,208.949,82.906z"/>
	<path d="M292.883,82.906c-5.036,0-8.393-3.357-8.393-8.393c0-5.036,3.357-8.393,8.393-8.393c9.233,0,16.787-7.554,16.787-16.787
		s-7.554-16.787-16.787-16.787c-5.036,0-8.393-3.357-8.393-8.393s3.357-8.393,8.393-8.393c18.466,0,33.574,15.108,33.574,33.574
		S311.349,82.906,292.883,82.906z"/>
	<path d="M7.506,275.955c-2.518,0-5.036-0.839-6.715-3.357c-2.518-3.357-2.518-9.233,1.679-11.751l41.967-33.574
		c1.679-0.839,3.357-1.679,5.036-1.679h58.754c5.036,0,8.393,3.357,8.393,8.393s-3.357,8.393-8.393,8.393H52.831l-39.449,31.895
		C10.864,275.115,9.185,275.955,7.506,275.955z"/>
	<path d="M217.342,116.479C217.342,116.479,216.503,116.479,217.342,116.479l-62.111-5.875
		c-21.823-1.679-42.807-9.233-61.272-21.823C77.172,77.87,62.903,61.922,52.831,44.296L33.526,10.722
		c-1.679-3.357-0.839-8.393,3.357-10.911c4.197-1.679,9.233-0.839,11.751,3.357l19.305,33.574
		c9.233,15.108,20.984,28.538,36.092,38.61c15.948,10.911,34.413,16.787,53.718,18.466l61.272,5.875
		c4.197,0.839,8.393,4.197,7.554,9.233C224.896,113.122,221.539,116.479,217.342,116.479z"/>
	<path d="M494.326,275.955c-1.679,0-3.357-0.839-5.036-1.679l-40.289-31.895h-55.397c-5.036,0-8.393-3.357-8.393-8.393
		s3.357-8.393,8.393-8.393h58.754c1.679,0,3.357,0.839,5.036,1.679l41.967,33.574c3.357,2.518,4.197,8.393,1.679,11.751
		C499.362,275.115,496.844,275.955,494.326,275.955z"/>
	<path d="M284.49,116.479c-4.197,0-7.554-3.357-8.393-7.554c0-5.036,3.357-8.393,7.554-9.233l61.272-5.875
		c19.305-1.679,37.77-8.393,53.718-18.466c15.108-10.072,26.859-23.502,36.092-38.61l19.305-33.574
		c1.679-4.197,6.715-5.036,10.911-3.357c4.197,2.518,5.036,7.554,3.357,11.751l-19.305,33.574
		C438.929,62.761,424.66,77.87,407.873,89.62c-18.466,11.751-39.449,19.305-61.272,21.823L284.49,116.479
		C285.329,116.479,284.49,116.479,284.49,116.479z"/>
	<path d="M141.801,410.25c-23.502,0-41.967-18.466-41.967-41.967c0-23.502,18.466-41.967,41.967-41.967
		c23.502,0,41.967,18.466,41.967,41.967C183.769,391.784,165.303,410.25,141.801,410.25z M141.801,343.102
		c-14.269,0-25.18,10.911-25.18,25.18s10.911,25.18,25.18,25.18c14.269,0,25.18-10.911,25.18-25.18S156.07,343.102,141.801,343.102z
		"/>
	<path d="M360.031,410.25c-23.502,0-41.967-18.466-41.967-41.967c0-23.502,18.466-41.967,41.967-41.967
		c23.502,0,41.967,18.466,41.967,41.967C401.998,391.784,383.532,410.25,360.031,410.25z M360.031,343.102
		c-14.269,0-25.18,10.911-25.18,25.18s10.911,25.18,25.18,25.18s25.18-10.911,25.18-25.18S374.3,343.102,360.031,343.102z"/>
</g>
</svg>