<?xml version="1.0" encoding="UTF-8" standalone="no"?>
<!-- Uploaded to: SVG Repo, www.svgrepo.com, Generator: SVG Repo Mixer Tools -->

<svg
   height="800px"
   width="800px"
   version="1.1"
   id="Layer_1"
   viewBox="0 0 503.578 503.578"
   xml:space="preserve"
   sodipodi:docname="Polilla-viejita.svg"
   inkscape:version="1.1.2 (0a00cf5339, 2022-02-04)"
   xmlns:inkscape="http://www.inkscape.org/namespaces/inkscape"
   xmlns:sodipodi="http://sodipodi.sourceforge.net/DTD/sodipodi-0.dtd"
   xmlns="http://www.w3.org/2000/svg"
   xmlns:svg="http://www.w3.org/2000/svg"><defs
   id="defs67">
	
	
	
	
	
	
	
	
	
	
	
	
	
	
	
	
	
	
	
</defs><sodipodi:namedview
   id="namedview65"
   pagecolor="#ffffff"
   bordercolor="#666666"
   borderopacity="1.0"
   inkscape:pageshadow="2"
   inkscape:pageopacity="0.0"
   inkscape:pagecheckerboard="0"
   showgrid="false"
   inkscape:zoom="0.5225"
   inkscape:cx="334.92823"
   inkscape:cy="374.16268"
   inkscape:window-width="2560"
   inkscape:window-height="1011"
   inkscape:window-x="0"
   inkscape:window-y="32"
   inkscape:window-maximized="1"
   inkscape:current-layer="Layer_1" />
<g
   id="g12"
   transform="translate(1,1)"
   style="fill:#d4aa00">
		<path
   style="fill:#d4aa00"
   d="m 7.506,284.348 c -2.518,0 -5.036,-0.839 -6.715,-3.357 -2.518,-3.357 -2.518,-9.233 1.679,-11.751 l 41.967,-33.574 c 1.679,-0.839 3.357,-1.679 5.036,-1.679 h 58.754 c 5.036,0 8.393,3.357 8.393,8.393 0,5.036 -3.357,8.393 -8.393,8.393 H 52.831 L 13.382,282.67 c -2.518,0.839 -4.197,1.678 -5.876,1.678 z"
   id="path2" />
		<path
   style="fill:#d4aa00"
   d="m 217.342,124.873 c 0,0 -0.839,0 0,0 l -62.111,-5.875 C 133.408,117.319 112.424,109.765 93.959,97.175 77.172,86.263 62.903,70.316 52.831,52.689 L 33.526,19.116 C 31.847,15.759 32.687,10.723 36.883,8.205 41.08,6.526 46.116,7.366 48.634,11.562 l 19.305,33.574 c 9.233,15.108 20.984,28.538 36.092,38.61 15.948,10.911 34.413,16.787 53.718,18.466 l 61.272,5.875 c 4.197,0.839 8.393,4.197 7.554,9.233 -1.679,4.196 -5.036,7.553 -9.233,7.553 z"
   id="path4" />
		<path
   style="fill:#d4aa00"
   d="m 494.326,284.348 c -1.679,0 -3.357,-0.839 -5.036,-1.679 l -40.289,-31.895 h -55.397 c -5.036,0 -8.393,-3.357 -8.393,-8.393 0,-5.036 3.357,-8.393 8.393,-8.393 h 58.754 c 1.679,0 3.357,0.839 5.036,1.679 l 41.967,33.574 c 3.357,2.518 4.197,8.393 1.679,11.751 -1.678,2.517 -4.196,3.356 -6.714,3.356 z"
   id="path6" />
		<path
   style="fill:#d4aa00"
   d="m 284.49,124.873 c -4.197,0 -7.554,-3.357 -8.393,-7.554 0,-5.036 3.357,-8.393 7.554,-9.233 l 61.272,-5.875 c 19.305,-1.679 37.77,-8.393 53.718,-18.466 15.108,-10.072 26.859,-23.502 36.092,-38.61 l 19.305,-33.574 c 1.679,-4.197 6.715,-5.036 10.911,-3.357 4.197,2.518 5.036,7.554 3.357,11.751 l -19.305,33.574 c -10.072,17.626 -24.341,32.734 -41.128,44.485 -18.466,11.751 -39.449,19.305 -61.272,21.823 l -62.111,5.036 c 0.839,0 0,0 0,0 z"
   id="path8" />
		<path
   style="fill:#d4aa00"
   d="m 349.119,178.591 c -22.662,-28.538 -54.557,-49.521 -89.81,-59.593 l -8.393,-2.518 -8.393,2.518 c -35.252,10.072 -67.148,31.056 -89.81,59.593 C 105.71,238.184 32.687,346.46 32.687,452.217 c 0,0 0,65.469 83.934,33.574 0,0 99.882,-43.646 134.295,-92.328 34.413,48.682 134.295,92.328 134.295,92.328 83.934,31.895 83.934,-33.574 83.934,-33.574 C 469.146,346.46 396.123,238.184 349.119,178.591"
   id="path10" />
	</g><path
   style="fill:#ffa800"
   d="m 350.119,179.591 c -22.662,-28.538 -54.557,-49.521 -89.81,-59.593 l -8.393,-2.518 -8.393,2.518 c -1.679,0 -2.518,0.839 -4.197,1.679 33.574,10.911 62.951,31.056 84.774,57.915 47.003,58.754 120.026,167.869 120.026,273.626 0,0 0,34.413 -32.734,41.128 58.754,9.233 58.754,-41.128 58.754,-41.128 0,-105.758 -73.023,-214.873 -120.027,-273.627"
   id="path14" /><path
   style="fill:#ffffff"
   d="m 153.713,179.591 c 22.662,-28.538 54.557,-49.521 89.81,-59.593 l 8.393,-2.518 8.393,2.518 c 1.679,0 2.518,0.839 4.197,1.679 -33.574,10.911 -62.951,31.056 -84.774,57.915 C 131.89,238.345 58.867,347.46 58.867,453.217 c 0,0 0,34.413 32.734,41.128 C 33.686,503.578 33.686,453.217 33.686,453.217 33.687,347.46 106.71,239.184 153.713,179.591"
   id="path16" /><g
   id="g22"
   transform="translate(1,1)"
   style="fill:#d4aa00">
		<path
   style="fill:#d4aa00"
   d="M 250.916,116.479 V 393.463"
   id="path18" />
		<path
   style="fill:#d4aa00"
   d="m 208.949,82.906 c 0,-18.466 18.466,-33.574 41.967,-33.574 23.501,0 41.967,15.108 41.967,33.574 0,18.466 -18.466,33.574 -41.967,33.574 -23.501,0 -41.967,-15.109 -41.967,-33.574"
   id="path20" />
	</g><path
   style="fill:#ffa800"
   d="m 251.916,50.332 c -2.518,0 -5.875,0 -8.393,0.839 19.305,3.357 33.574,16.787 33.574,32.734 0,15.947 -14.269,29.377 -33.574,32.734 2.518,0.839 5.875,0.839 8.393,0.839 23.502,0 41.967,-15.108 41.967,-33.574 0,-18.466 -18.465,-33.572 -41.967,-33.572"
   id="path24" /><path
   style="fill:#ffffff"
   d="m 251.916,50.332 c 2.518,0 5.875,0 8.393,0.839 -19.305,3.357 -33.574,16.787 -33.574,32.734 0,15.947 14.269,29.377 33.574,32.734 -2.518,0.839 -5.875,0.839 -8.393,0.839 -23.502,0 -41.967,-15.108 -41.967,-33.574 0,-18.466 18.465,-33.572 41.967,-33.572"
   id="path26" /><g
   id="g32"
   transform="translate(1,1)"
   style="fill:#484537">
		<path
   style="fill:#484537"
   d="m 175.375,368.283 c 0,18.466 -15.108,33.574 -33.574,33.574 -18.466,0 -33.574,-15.108 -33.574,-33.574 0,-18.466 15.108,-33.574 33.574,-33.574 18.466,0 33.574,15.108 33.574,33.574"
   id="path28" />
		<path
   style="fill:#484537"
   d="m 393.605,368.283 c 0,18.466 -15.108,33.574 -33.574,33.574 -18.466,0 -33.574,-15.108 -33.574,-33.574 0,-18.466 15.108,-33.574 33.574,-33.574 18.466,0 33.574,15.108 33.574,33.574"
   id="path30" />
	</g><g
   id="g38"
   transform="translate(1,1)"
   style="fill:#918a6f">
		<path
   style="fill:#918a6f"
   d="m 360.031,334.709 c -4.197,0 -8.393,0.839 -12.59,2.518 12.59,5.036 20.984,16.787 20.984,31.056 0,14.269 -8.393,26.02 -20.984,31.056 4.197,1.679 8.393,2.518 12.59,2.518 18.466,0 33.574,-15.108 33.574,-33.574 0,-18.466 -15.109,-33.574 -33.574,-33.574"
   id="path34" />
		<path
   style="fill:#918a6f"
   d="m 141.801,334.709 c -4.197,0 -8.393,0.839 -12.59,2.518 12.59,5.036 20.984,16.787 20.984,31.056 0,14.269 -8.393,26.02 -20.984,31.056 4.197,1.679 8.393,2.518 12.59,2.518 18.466,0 33.574,-15.108 33.574,-33.574 0,-18.466 -15.108,-33.574 -33.574,-33.574"
   id="path36" />
	</g><path
   d="m 426.5,503.578 v 0 c -12.59,0 -26.859,-3.357 -42.807,-9.233 -4.197,-1.679 -91.488,-40.289 -130.938,-86.452 -40.289,46.164 -126.741,84.774 -130.938,86.452 -16.787,5.875 -31.056,9.233 -43.646,9.233 -41.967,0 -52.879,-32.734 -52.879,-50.361 0,-109.954 76.38,-221.587 121.705,-278.662 24.341,-30.216 57.075,-52.039 94.007,-62.951 l 8.393,-2.518 c 1.679,-0.839 3.357,-0.839 4.197,0 l 8.393,2.518 c 37.77,10.911 70.505,32.734 94.007,62.951 46.164,57.075 122.544,168.708 122.544,278.662 10e-4,17.626 -10.91,50.361 -52.038,50.361 z M 251.916,386.07 v 0 c 2.518,0 5.036,1.679 6.715,3.357 32.734,47.003 130.098,88.97 130.938,89.81 13.429,5.036 26.02,7.554 36.931,7.554 34.413,0 35.252,-30.216 35.252,-33.574 0,-104.079 -73.862,-213.193 -118.348,-268.59 -21.823,-27.698 -52.039,-47.003 -85.613,-57.075 l -5.875,-1.679 -5.875,1.679 c -34.413,10.072 -63.79,29.377 -85.613,57.075 -44.486,55.397 -118.348,163.672 -118.348,268.59 0,3.357 1.679,33.574 35.252,33.574 10.072,0 22.662,-2.518 36.931,-8.393 0.839,0 97.364,-42.807 130.098,-88.97 2.519,-1.68 5.037,-3.358 7.555,-3.358 z"
   id="path40" /><path
   d="m 251.916,402.856 c -5.036,0 -8.393,-3.357 -8.393,-8.393 V 117.479 c 0,-5.036 3.357,-8.393 8.393,-8.393 5.036,0 8.393,3.357 8.393,8.393 v 276.984 c 10e-4,5.036 -3.357,8.393 -8.393,8.393 z"
   id="path42" /><path
   d="m 251.916,125.873 c -27.698,0 -50.361,-18.466 -50.361,-41.967 0,-23.501 22.662,-41.967 50.361,-41.967 27.698,0 50.361,18.466 50.361,41.967 0,23.501 -22.663,41.967 -50.361,41.967 z m 0,-67.148 c -18.466,0 -33.574,10.911 -33.574,25.18 0,14.269 15.108,25.18 33.574,25.18 18.466,0 33.574,-10.911 33.574,-25.18 0,-14.269 -15.108,-25.18 -33.574,-25.18 z"
   id="path44" /><path
   d="m 209.949,83.906 c -18.466,0 -33.574,-15.108 -33.574,-33.574 0,-18.466 15.108,-33.574 33.574,-33.574 5.036,0 8.393,3.357 8.393,8.393 0,5.036 -3.357,8.393 -8.393,8.393 -9.233,0 -16.787,7.554 -16.787,16.787 0,9.233 7.554,16.787 16.787,16.787 5.036,0 8.393,3.357 8.393,8.393 0,5.036 -3.357,8.395 -8.393,8.395 z"
   id="path46" /><path
   d="m 293.883,83.906 c -5.036,0 -8.393,-3.357 -8.393,-8.393 0,-5.036 3.357,-8.393 8.393,-8.393 9.233,0 16.787,-7.554 16.787,-16.787 0,-9.233 -7.554,-16.787 -16.787,-16.787 -5.036,0 -8.393,-3.357 -8.393,-8.393 0,-5.036 3.357,-8.393 8.393,-8.393 18.466,0 33.574,15.108 33.574,33.574 0,18.466 -15.108,33.572 -33.574,33.572 z"
   id="path48" /><path
   d="m 8.506,276.955 c -2.518,0 -5.036,-0.839 -6.715,-3.357 -2.518,-3.357 -2.518,-9.233 1.679,-11.751 l 41.967,-33.574 c 1.679,-0.839 3.357,-1.679 5.036,-1.679 h 58.754 c 5.036,0 8.393,3.357 8.393,8.393 0,5.036 -3.357,8.393 -8.393,8.393 H 53.831 l -39.449,31.895 c -2.518,0.84 -4.197,1.68 -5.876,1.68 z"
   id="path50" /><path
   d="m 218.342,117.479 c 0,0 -0.839,0 0,0 l -62.111,-5.875 C 134.408,109.925 113.424,102.371 94.959,89.781 78.172,78.87 63.903,62.922 53.831,45.296 L 34.526,11.722 C 32.847,8.365 33.687,3.329 37.883,0.811 42.08,-0.868 47.116,-0.028 49.634,4.168 l 19.305,33.574 c 9.233,15.108 20.984,28.538 36.092,38.61 15.948,10.911 34.413,16.787 53.718,18.466 l 61.272,5.875 c 4.197,0.839 8.393,4.197 7.554,9.233 -1.679,4.196 -5.036,7.553 -9.233,7.553 z"
   id="path52" /><path
   d="m 495.326,276.955 c -1.679,0 -3.357,-0.839 -5.036,-1.679 l -40.289,-31.895 h -55.397 c -5.036,0 -8.393,-3.357 -8.393,-8.393 0,-5.036 3.357,-8.393 8.393,-8.393 h 58.754 c 1.679,0 3.357,0.839 5.036,1.679 l 41.967,33.574 c 3.357,2.518 4.197,8.393 1.679,11.751 -1.678,2.516 -4.196,3.356 -6.714,3.356 z"
   id="path54" /><path
   d="m 285.49,117.479 c -4.197,0 -7.554,-3.357 -8.393,-7.554 0,-5.036 3.357,-8.393 7.554,-9.233 l 61.272,-5.875 c 19.305,-1.679 37.77,-8.393 53.718,-18.466 15.108,-10.072 26.859,-23.502 36.092,-38.61 L 455.038,4.167 c 1.679,-4.197 6.715,-5.036 10.911,-3.357 4.197,2.518 5.036,7.554 3.357,11.751 L 450.001,46.135 C 439.929,63.761 425.66,78.87 408.873,90.62 c -18.466,11.751 -39.449,19.305 -61.272,21.823 l -62.111,5.036 c 0.839,0 0,0 0,0 z"
   id="path56" /><path
   d="m 142.801,411.25 c -23.502,0 -41.967,-18.466 -41.967,-41.967 0,-23.502 18.466,-41.967 41.967,-41.967 23.502,0 41.967,18.466 41.967,41.967 0.001,23.501 -18.465,41.967 -41.967,41.967 z m 0,-67.148 c -14.269,0 -25.18,10.911 -25.18,25.18 0,14.269 10.911,25.18 25.18,25.18 14.269,0 25.18,-10.911 25.18,-25.18 0,-14.269 -10.911,-25.18 -25.18,-25.18 z"
   id="path58" /><path
   d="m 361.031,411.25 c -23.502,0 -41.967,-18.466 -41.967,-41.967 0,-23.502 18.466,-41.967 41.967,-41.967 23.502,0 41.967,18.466 41.967,41.967 0,23.501 -18.466,41.967 -41.967,41.967 z m 0,-67.148 c -14.269,0 -25.18,10.911 -25.18,25.18 0,14.269 10.911,25.18 25.18,25.18 14.269,0 25.18,-10.911 25.18,-25.18 0,-14.269 -10.911,-25.18 -25.18,-25.18 z"
   id="path60" />
</svg>
