<?xml version="1.0" encoding="iso-8859-1"?>
<!-- Uploaded to: SVG Repo, www.svgrepo.com, Generator: SVG Repo Mixer Tools -->
<svg height="800px" width="800px" version="1.1" id="Layer_1" xmlns="http://www.w3.org/2000/svg" xmlns:xlink="http://www.w3.org/1999/xlink" 
	 viewBox="0 0 512 512" xml:space="preserve">
<path style="fill:#EAFFFF;" d="M445.217,489.739H66.783c-24.588,0-44.522-19.934-44.522-44.522V66.783
	c0-24.588,19.933-44.522,44.522-44.522h378.435c24.588,0,44.522,19.933,44.522,44.522v378.435
	C489.739,469.806,469.806,489.739,445.217,489.739z"/>
<path style="fill:#A9D5BB;" d="M489.739,512H22.261C9.966,512,0,502.034,0,489.739v-77.913c0-12.295,9.966-22.261,22.261-22.261
	h467.478c12.295,0,22.261,9.966,22.261,22.261v77.913C512,502.034,502.034,512,489.739,512z"/>
<path style="fill:#EAFFFF;" d="M155.826,464.139H22.261c-4.61,0-8.348-3.738-8.348-8.348c0-4.61,3.738-8.348,8.348-8.348h133.565
	c4.61,0,8.348,3.738,8.348,8.348C164.174,460.402,160.436,464.139,155.826,464.139z M189.218,464.139H256
	c4.61,0,8.348-3.738,8.348-8.348c0-4.61-3.738-8.348-8.348-8.348h-66.783c-4.61,0-8.348,3.738-8.348,8.348
	C180.87,460.402,184.607,464.139,189.218,464.139z M473.044,450.783H328.348c-4.61,0-8.348,3.738-8.348,8.348
	s3.738,8.348,8.348,8.348h144.696c4.61,0,8.348-3.738,8.348-8.348S477.654,450.783,473.044,450.783z M345.044,481.392H122.435
	c-4.61,0-8.348,3.738-8.348,8.348s3.738,8.348,8.348,8.348h222.609c4.61,0,8.348-3.738,8.348-8.348S349.654,481.392,345.044,481.392
	z"/>
<path style="fill:#84837A;" d="M512,233.739c0,4.61-3.738,8.348-8.348,8.348c-10.74,0-19.478,8.738-19.478,19.478
	c0,4.61-3.738,8.348-8.348,8.348s-8.348-3.738-8.348-8.348c0-10.74-8.738-19.478-19.478-19.478c-4.61,0-8.348-3.738-8.348-8.348
	c0-4.61,3.738-8.348,8.348-8.348c11.176,0,21.186,5.096,27.826,13.084c6.64-7.988,16.65-13.084,27.826-13.084
	C508.263,225.392,512,229.129,512,233.739z"/>
<path style="fill:#FFFF81;" d="M189.218,94.609c0,52.251-42.358,94.609-94.609,94.609S0,146.86,0,94.609S42.358,0,94.609,0
	S189.218,42.358,189.218,94.609z"/>
<path style="fill:#FFF145;" d="M144.696,94.609c0,27.662-22.424,50.087-50.087,50.087s-50.087-22.424-50.087-50.087
	s22.424-50.087,50.087-50.087S144.696,66.946,144.696,94.609z"/>
<path style="fill:#A07040;" d="M392.348,333.913v44.522c0,4.61-3.738,8.348-8.348,8.348s-8.348-3.738-8.348-8.348v-44.522
	c0-7.672-6.241-13.913-13.913-13.913H172.522c-29.152,0-52.87-23.718-52.87-52.87v-44.522c0-4.61,3.738-8.348,8.348-8.348
	c4.61,0,8.348,3.738,8.348,8.348v44.522c0,19.946,16.228,36.174,36.174,36.174h189.217
	C378.617,303.305,392.348,317.035,392.348,333.913z"/>
<path style="fill:#D3842F;" d="M392.348,100.174v77.913c0,29.152-23.718,52.87-52.87,52.87h-27.826
	c-7.672,0-13.913,6.241-13.913,13.913v133.565c0,4.61-3.738,8.348-8.348,8.348s-8.348-3.738-8.348-8.348V244.87
	c0-16.878,13.73-30.609,30.609-30.609h27.826c19.946,0,36.174-16.228,36.174-36.174v-77.913c0-4.61,3.738-8.348,8.348-8.348
	S392.348,95.564,392.348,100.174z"/>
<path style="fill:#DDB961;" d="M456.348,411.826L456.348,411.826c0,12.295-9.966,22.261-22.261,22.261H77.913
	c-12.295,0-22.261-9.966-22.261-22.261l0,0c0-30.736,24.917-55.652,55.652-55.652h289.391
	C431.431,356.174,456.348,381.091,456.348,411.826z"/>
<path style="fill:#CEA455;" d="M60.296,389.565h391.407c2.98,6.819,4.644,14.344,4.644,22.261l0,0
	c0,12.295-9.966,22.261-22.261,22.261H77.913c-12.295,0-22.261-9.966-22.261-22.261l0,0
	C55.652,403.909,57.316,396.384,60.296,389.565z"/>
<path style="fill:#7F932A;" d="M35.867,149.623L35.867,149.623c18.836-15.805,46.918-13.349,62.723,5.487l57.236,68.212l0,0
	c-18.836,15.805-46.918,13.349-62.723-5.487L35.867,149.623z"/>
<path style="fill:#606D11;" d="M159.332,206.705c-15.805,18.836-43.887,21.293-62.723,5.487l0,0l57.236-68.212
	c15.805-18.836,43.887-21.293,62.723-5.487l0,0L159.332,206.705z"/>
<path style="fill:#9FBA41;" d="M133.565,211.479c0,24.588-19.933,44.522-44.522,44.522H0l0,0c0-24.588,19.933-44.522,44.522-44.522
	H133.565L133.565,211.479z"/>
<g>
	<path style="fill:#7F932A;" d="M122.435,211.479h89.043C236.067,211.479,256,231.412,256,256l0,0h-89.043
		C142.368,256,122.435,236.067,122.435,211.479L122.435,211.479z"/>
	<path style="fill:#7F932A;" d="M290.629,10.417L290.629,10.417c18.836-15.805,46.918-13.349,62.723,5.487l57.236,68.212l0,0
		c-18.836,15.805-46.918,13.349-62.723-5.487L290.629,10.417z"/>
</g>
<path style="fill:#606D11;" d="M364.888,91.826l49.76-59.301c15.805-18.836,43.887-21.293,62.723-5.487l-54.364,64.788H364.888z"/>
<path style="fill:#7F932A;" d="M378.435,83.403h89.043c24.588,0,44.522,19.933,44.522,44.522l0,0h-89.043
	C398.368,127.925,378.435,107.992,378.435,83.403L378.435,83.403z"/>
<path style="fill:#9FBA41;" d="M389.565,83.403c0,24.588-19.934,44.522-44.522,44.522H256l0,0c0-24.588,19.934-44.522,44.522-44.522
	H389.565L389.565,83.403z"/>
</svg>