<?xml version="1.0" standalone="no"?>
<!DOCTYPE svg PUBLIC "-//W3C//DTD SVG 20010904//EN"
 "http://www.w3.org/TR/2001/REC-SVG-20010904/DTD/svg10.dtd">
<svg version="1.0" xmlns="http://www.w3.org/2000/svg"
 width="3485.000000pt" height="2446.000000pt" viewBox="0 0 3485.000000 2446.000000"
 preserveAspectRatio="xMidYMid meet">
<metadata>
Created by potrace 1.16, written by Peter Selinger 2001-2019
</metadata>
<g transform="translate(0.000000,2446.000000) scale(0.100000,-0.100000)"
fill="#000000" stroke="none">
<path d="M7090 24429 c-223 -21 -446 -57 -585 -96 -399 -110 -663 -241 -1258
-624 -146 -94 -211 -151 -341 -303 -203 -236 -356 -470 -433 -660 -14 -33 -42
-92 -64 -131 -21 -39 -45 -102 -54 -140 -9 -39 -25 -97 -35 -130 -18 -56 -45
-150 -90 -320 -58 -219 -65 -402 -19 -500 22 -48 23 -61 24 -290 1 -211 4
-251 23 -329 26 -102 78 -276 128 -421 19 -55 52 -176 73 -270 22 -93 59 -222
84 -285 24 -63 52 -140 62 -170 53 -164 323 -615 549 -915 240 -318 772 -835
1081 -1050 146 -101 332 -201 507 -271 90 -36 174 -70 188 -76 22 -10 9 -13
-90 -29 -63 -10 -178 -29 -255 -43 -77 -13 -212 -37 -300 -51 -88 -15 -259
-46 -380 -70 -271 -54 -323 -62 -500 -75 -77 -5 -178 -14 -225 -19 -211 -24
-711 -59 -950 -66 -346 -10 -681 25 -905 95 -149 46 -226 68 -315 89 -47 11
-125 35 -175 54 -103 39 -235 75 -415 112 -77 16 -173 45 -250 77 -69 27 -163
64 -210 80 -131 47 -386 163 -455 208 -34 22 -131 67 -216 99 -210 79 -242 94
-297 139 -26 21 -74 55 -107 75 -33 20 -96 65 -139 101 -44 36 -104 75 -135
87 -65 25 -158 94 -218 159 -48 53 -96 72 -184 72 -119 0 -189 -79 -190 -215
-1 -101 16 -149 81 -227 21 -25 50 -70 65 -100 49 -97 139 -202 320 -376 198
-189 298 -261 492 -356 67 -32 142 -76 166 -96 25 -20 92 -76 149 -123 156
-130 249 -184 543 -316 168 -76 202 -90 310 -129 321 -115 478 -155 747 -193
113 -16 246 -39 295 -50 48 -11 144 -29 213 -40 69 -11 229 -38 355 -60 127
-22 277 -45 335 -51 58 -5 130 -14 160 -20 163 -28 709 -40 966 -20 71 5 203
14 294 20 91 6 221 18 290 25 69 8 235 26 370 40 467 49 652 78 985 152 110
25 238 53 285 63 47 10 112 25 144 33 83 22 58 5 -54 -36 -135 -50 -177 -70
-293 -138 -213 -124 -473 -200 -902 -265 -406 -61 -1741 -73 -2190 -19 -66 8
-203 24 -305 35 -312 36 -515 67 -741 114 -221 46 -261 57 -387 107 -39 16
-125 45 -190 64 -64 19 -175 53 -247 75 -71 22 -173 47 -225 56 -166 27 -386
114 -638 251 -249 136 -254 138 -382 174 -63 17 -182 51 -263 76 -146 44 -260
62 -310 49 -67 -16 -126 -104 -127 -185 0 -75 30 -119 162 -237 67 -60 145
-133 174 -162 67 -67 200 -131 404 -196 112 -35 199 -72 383 -166 300 -152
382 -186 592 -251 94 -28 218 -73 276 -100 58 -27 109 -49 113 -49 4 0 60 -22
124 -49 65 -27 149 -57 187 -66 39 -9 120 -31 180 -50 253 -78 349 -107 525
-155 102 -29 241 -69 310 -91 69 -21 156 -46 195 -54 38 -9 110 -29 160 -45
102 -32 286 -65 479 -85 72 -8 181 -21 241 -29 149 -20 666 -41 960 -39 309 2
469 15 680 58 94 19 217 42 275 50 58 9 152 27 210 41 58 13 247 53 420 89
408 84 428 89 605 147 163 53 290 120 465 245 53 38 145 92 205 121 292 141
499 251 588 313 53 37 97 66 97 64 0 -2 -8 -42 -19 -87 -29 -129 -32 -164 -20
-233 21 -122 99 -200 211 -212 62 -6 229 30 348 76 41 16 116 36 165 45 79 13
99 13 165 1 102 -20 243 -71 314 -114 51 -31 69 -36 130 -38 48 -2 100 -13
161 -34 60 -21 122 -34 186 -40 54 -4 136 -15 185 -24 62 -12 110 -15 164 -10
55 5 100 2 156 -9 44 -9 131 -23 194 -31 135 -18 262 -47 330 -76 52 -22 80
-53 154 -169 54 -85 199 -237 266 -279 45 -28 189 -81 333 -122 l77 -22 -2
-176 c-2 -177 3 -219 53 -441 33 -148 155 -307 283 -370 l67 -33 102 11 c56 6
135 23 176 37 41 14 91 25 112 25 35 0 43 -6 111 -85 79 -93 139 -139 202
-156 25 -7 102 -10 194 -8 l153 4 27 -80 c15 -44 61 -136 102 -205 63 -108 91
-142 197 -248 133 -132 240 -261 250 -299 3 -14 -4 -56 -16 -96 -29 -94 -42
-287 -44 -657 -1 -278 -1 -288 25 -398 15 -62 59 -192 97 -290 90 -230 103
-295 121 -606 9 -150 7 -184 -10 -295 -11 -69 -26 -173 -34 -231 -8 -58 -31
-163 -51 -235 -19 -71 -45 -177 -56 -235 -12 -58 -31 -132 -44 -165 -42 -113
-89 -357 -105 -548 -5 -61 -14 -139 -20 -172 -6 -33 -16 -172 -21 -310 -5
-137 -13 -304 -18 -370 -5 -66 -10 -227 -10 -358 -1 -217 1 -247 24 -353 14
-64 34 -188 45 -277 11 -89 24 -178 30 -197 15 -51 47 -249 60 -370 7 -58 19
-139 27 -180 8 -41 19 -144 24 -227 7 -114 17 -182 39 -267 l29 -114 8 -983
c4 -541 7 -1155 8 -1364 0 -332 3 -386 18 -430 9 -28 21 -110 27 -185 12 -161
30 -250 63 -316 13 -27 34 -81 45 -120 12 -39 31 -83 43 -99 17 -21 26 -57 40
-157 l19 -130 -43 -51 c-23 -29 -96 -108 -162 -177 -85 -88 -146 -163 -206
-255 -92 -139 -108 -156 -209 -227 -36 -26 -97 -77 -135 -115 -66 -64 -72 -74
-109 -176 -34 -93 -40 -124 -44 -212 -4 -98 -3 -106 21 -148 31 -52 81 -98
140 -129 65 -33 211 -37 352 -8 106 22 123 22 445 16 216 -4 367 -12 425 -21
61 -10 166 -15 327 -15 164 0 258 -4 305 -14 37 -8 163 -17 278 -21 144 -5
240 -13 304 -26 113 -23 295 -26 344 -5 42 17 109 91 142 155 30 60 49 183 43
276 -4 70 -20 105 -155 345 -45 80 -88 168 -96 195 -8 28 -24 85 -36 129 -28
100 -127 352 -153 389 -19 27 -20 30 -4 93 15 60 53 249 90 446 12 60 18 165
21 340 5 278 18 477 40 608 8 47 17 103 19 125 3 22 19 128 35 235 17 107 35
256 41 330 7 80 25 195 45 280 18 80 43 192 55 250 12 58 40 173 61 256 22 84
53 239 69 345 20 126 44 240 70 324 40 132 79 304 100 450 12 81 72 371 91
435 38 131 226 706 294 900 20 58 37 132 44 190 6 52 20 123 33 157 18 54 30
69 75 103 30 22 56 40 58 40 9 0 5 -325 -5 -365 -9 -42 -32 -349 -50 -675 -6
-107 -19 -247 -28 -310 -13 -98 -16 -215 -14 -800 1 -638 0 -693 -18 -801 -11
-63 -27 -180 -35 -260 -8 -79 -22 -182 -29 -229 -17 -98 -32 -248 -42 -401 -5
-84 -3 -124 11 -185 21 -97 39 -133 125 -254 39 -56 85 -137 110 -195 66 -156
96 -210 192 -350 80 -116 124 -163 398 -436 320 -318 357 -349 501 -410 82
-35 318 -120 419 -150 74 -22 261 -38 460 -39 118 0 145 -3 212 -26 85 -28
221 -109 299 -177 27 -24 87 -66 132 -93 50 -29 125 -89 191 -151 60 -57 119
-105 132 -108 13 -3 34 -7 47 -10 27 -5 67 -65 112 -168 35 -81 137 -230 186
-271 106 -90 247 -129 320 -90 22 12 49 17 77 15 79 -5 160 62 233 194 18 33
51 88 73 122 93 141 122 193 157 278 20 50 55 132 78 183 22 51 52 134 67 185
14 51 36 127 49 169 83 265 112 503 95 774 -21 331 -63 466 -251 789 -74 129
-199 267 -276 305 -26 13 -65 34 -85 47 -21 12 -68 35 -105 50 -66 27 -72 28
-258 27 -144 -1 -200 -5 -230 -17 -101 -38 -194 -81 -235 -107 -65 -41 -185
-86 -306 -115 -84 -20 -132 -25 -232 -25 -164 0 -195 9 -226 63 -31 53 -56
150 -56 216 0 55 43 216 86 321 14 36 45 137 69 225 52 195 75 274 125 430 21
66 41 143 45 170 4 28 25 119 46 204 36 138 48 169 128 320 48 93 106 192 128
222 22 30 60 86 85 126 45 69 143 184 295 345 66 71 81 95 184 305 126 256
191 353 278 412 70 49 100 81 143 153 18 31 94 122 169 201 178 188 185 206
209 512 8 101 9 187 1 310 -6 94 -11 180 -11 191 0 19 17 13 171 -63 132 -65
202 -92 303 -119 359 -97 490 -132 831 -219 204 -51 404 -105 445 -120 41 -14
167 -51 280 -81 113 -30 265 -70 337 -90 90 -24 207 -45 365 -65 319 -39 362
-42 751 -43 l340 -1 19 -55 c44 -131 177 -412 250 -528 88 -140 137 -205 233
-312 85 -95 227 -283 253 -335 20 -41 88 -222 192 -510 31 -88 78 -218 104
-290 26 -71 63 -175 82 -229 20 -55 50 -129 69 -165 31 -64 80 -209 164 -491
47 -160 85 -346 106 -525 9 -71 18 -137 21 -146 2 -10 14 -109 25 -220 35
-355 57 -1191 41 -1557 -10 -227 -11 -235 -40 -296 -17 -35 -49 -89 -73 -119
-24 -30 -52 -67 -62 -81 -9 -14 -70 -64 -135 -112 -159 -117 -263 -220 -319
-318 -26 -43 -68 -103 -94 -134 -32 -36 -59 -81 -78 -131 -40 -105 -47 -157
-27 -224 15 -51 26 -65 125 -155 59 -55 124 -108 142 -118 19 -9 60 -35 92
-56 177 -120 446 -188 742 -188 110 0 183 13 264 45 114 47 226 65 396 65 190
0 331 15 399 42 49 19 59 19 221 8 l170 -12 95 31 c52 17 109 40 125 51 17 12
53 33 80 47 28 14 68 40 90 58 23 18 60 39 83 46 79 23 156 109 151 167 -2 16
15 63 38 112 98 205 130 317 120 429 -23 255 -33 302 -111 518 -39 109 -37
203 9 340 55 163 88 393 82 568 -9 240 -86 486 -211 673 -25 37 -63 108 -85
159 -22 50 -54 119 -71 154 -55 108 -56 111 -115 469 -26 156 -56 233 -127
329 l-40 53 -4 187 c-4 244 -20 337 -79 459 -25 51 -45 98 -45 102 0 5 22 24
49 41 61 40 85 80 84 139 -1 59 -31 122 -94 196 -70 82 -95 140 -108 254 -6
52 -14 113 -18 134 -4 29 -3 37 6 32 7 -4 57 -68 112 -142 112 -151 222 -253
324 -303 33 -16 106 -41 163 -55 186 -45 238 -94 292 -276 13 -41 41 -121 62
-178 40 -103 40 -104 187 -261 123 -132 153 -171 188 -242 77 -157 101 -274
123 -599 34 -529 56 -773 80 -874 10 -45 21 -112 25 -151 4 -38 16 -117 26
-174 11 -58 19 -130 19 -161 0 -31 9 -105 20 -166 31 -165 38 -556 15 -764
-10 -85 -19 -189 -20 -230 -3 -105 -12 -152 -52 -255 -58 -153 -66 -168 -118
-225 -28 -30 -63 -72 -79 -93 -16 -21 -50 -52 -75 -69 -25 -17 -61 -44 -79
-60 -18 -15 -63 -44 -100 -64 -97 -51 -188 -109 -262 -168 -36 -29 -84 -64
-108 -79 -24 -16 -45 -36 -48 -45 -3 -9 -14 -33 -23 -52 -26 -50 -45 -153 -38
-203 9 -63 45 -139 81 -167 17 -14 59 -48 93 -77 l62 -53 223 -15 c123 -8 318
-15 433 -15 133 0 247 -6 310 -15 168 -25 364 -30 490 -11 334 49 541 55 680
20 42 -11 86 -14 150 -10 335 20 403 25 432 34 17 6 107 13 200 17 119 5 184
13 223 26 30 10 83 25 118 35 111 30 204 143 262 318 20 60 22 82 17 180 -5
124 -19 171 -141 478 -82 209 -88 248 -51 360 15 46 36 106 47 133 11 28 24
68 30 90 11 45 3 256 -12 320 -5 22 -17 81 -25 130 -20 113 -105 410 -151 529
-20 50 -64 180 -99 288 -73 227 -126 336 -227 465 -38 48 -71 96 -73 108 -2
11 -6 121 -9 245 -3 124 -10 243 -16 265 -7 22 -41 101 -76 176 -58 122 -64
139 -54 165 7 17 8 53 4 90 -5 50 -2 75 16 130 31 93 24 239 -19 414 -33 133
-33 129 -10 360 33 334 45 407 165 980 89 426 95 590 29 818 -29 101 -32 194
-9 327 38 228 -24 851 -120 1205 -19 69 -42 163 -51 210 -9 47 -35 130 -56
184 -21 55 -39 105 -39 110 0 6 13 19 29 28 21 12 43 44 77 113 26 53 76 133
112 178 159 200 210 285 277 455 77 199 111 338 151 612 21 143 30 669 15 827
-11 108 -34 291 -47 371 -4 29 -3 32 21 32 14 0 28 -6 30 -12 2 -7 9 -98 15
-203 11 -182 30 -344 84 -705 14 -91 30 -228 35 -305 6 -77 18 -185 26 -240 8
-55 19 -159 24 -230 6 -72 17 -162 25 -200 8 -39 20 -126 26 -195 6 -69 22
-235 35 -370 24 -241 31 -336 60 -777 8 -122 19 -253 25 -290 21 -129 42 -429
50 -718 4 -159 13 -308 19 -330 20 -77 34 -497 21 -660 -14 -185 -29 -464 -29
-567 l-1 -78 -34 0 c-45 0 -92 -40 -117 -98 -19 -44 -102 -372 -134 -530 -9
-45 -30 -122 -46 -170 -47 -137 -55 -269 -29 -488 16 -138 20 -237 20 -462 0
-371 14 -560 75 -1002 30 -214 45 -273 92 -362 45 -86 91 -128 139 -128 43 0
89 23 105 51 10 20 12 20 34 -14 61 -90 195 -87 237 4 38 81 48 367 21 581 -9
73 -17 194 -17 268 l-1 135 42 6 c74 10 115 64 128 169 6 53 -15 232 -50 425
-13 72 -20 152 -41 467 -7 97 -7 97 29 170 20 40 43 91 50 113 18 52 32 54 48
8 14 -41 15 -515 3 -828 -7 -185 1 -230 47 -269 33 -28 73 -33 113 -14 54 24
78 88 112 298 35 211 44 578 20 750 -35 243 -61 338 -111 411 -24 34 -142 138
-194 171 -26 16 -26 32 -2 72 12 19 22 61 26 111 4 43 16 113 27 155 29 112
45 490 30 669 -7 75 -12 292 -12 482 0 308 2 356 20 443 19 90 21 135 21 614
1 407 -2 557 -16 705 -14 158 -16 282 -12 770 2 320 0 735 -6 922 -5 187 -9
399 -8 470 2 90 -8 236 -33 479 -72 700 -132 1006 -256 1310 -22 55 -56 152
-74 215 -19 64 -56 170 -81 236 -26 66 -64 167 -85 226 -94 259 -216 515 -326
684 -28 44 -71 118 -94 165 -51 101 -179 315 -231 385 -20 28 -66 78 -101 111
-36 34 -91 100 -123 145 -32 46 -74 101 -92 122 -26 29 -33 46 -33 80 -1 23
-6 52 -13 64 -7 12 -98 111 -204 220 -105 109 -214 226 -242 260 -28 34 -55
64 -61 68 -6 4 -31 38 -56 76 -96 146 -768 753 -1043 943 -40 28 -191 147
-334 263 -358 292 -472 369 -902 608 -77 43 -183 104 -235 135 -119 73 -274
150 -460 230 -80 34 -220 98 -312 141 -275 129 -492 192 -742 215 -137 13
-208 14 -481 4 l-320 -12 -100 25 c-55 14 -133 31 -174 37 -41 7 -133 29 -205
50 -99 28 -165 40 -271 50 -91 7 -158 19 -192 32 -104 40 -217 35 -393 -18
-146 -45 -276 -65 -429 -69 -240 -7 -560 -44 -721 -85 -233 -59 -428 -90 -570
-90 -190 0 -518 -56 -710 -120 l-125 -42 -160 5 c-109 3 -189 11 -250 25 -120
27 -363 42 -688 42 l-267 0 -108 34 c-224 71 -370 115 -447 135 -44 11 -135
43 -203 71 -142 57 -357 131 -470 159 -82 21 -317 120 -411 172 -31 17 -88 53
-126 79 -39 26 -98 61 -130 78 -43 21 -65 40 -79 66 -24 44 -175 145 -377 251
-164 87 -282 166 -474 320 -520 415 -668 507 -1168 727 -467 206 -488 214
-593 233 -143 25 -134 21 -132 58 1 38 -15 73 -41 87 -11 5 -52 22 -93 36
-146 53 -338 161 -474 267 -22 18 -61 46 -85 63 -25 17 -67 60 -94 95 -26 35
-65 79 -87 97 -21 19 -73 77 -115 130 -42 54 -100 127 -129 163 -31 39 -93 96
-151 140 -54 41 -129 101 -168 134 -125 108 -204 157 -381 236 -174 78 -461
176 -584 200 -94 17 -451 18 -520 0 -68 -17 -352 -124 -478 -180 -121 -53
-302 -105 -478 -136 -222 -39 -490 -141 -790 -300 -119 -64 -266 -108 -436
-129 -102 -13 -125 -13 -172 -1 -109 28 -173 29 -336 2 -94 -16 -219 -28 -318
-32 -193 -7 -292 -18 -396 -45 -102 -27 -261 -91 -366 -147 -47 -25 -106 -57
-131 -70 -27 -14 -86 -30 -140 -39 -139 -22 -290 -70 -409 -129 -117 -58 -301
-127 -550 -205 -91 -28 -190 -60 -220 -70 -86 -28 -193 -48 -339 -60 -191 -17
-284 -46 -381 -119 -31 -23 -47 -27 -140 -32 -91 -5 -120 -12 -211 -47 -59
-23 -153 -53 -210 -68 -120 -30 -162 -29 -329 10 -58 13 -155 35 -217 49 -183
43 -389 149 -573 299 -94 76 -113 99 -202 238 -109 170 -169 321 -216 542 -12
53 -30 115 -41 137 -12 22 -21 48 -21 57 0 10 -8 26 -17 37 -15 16 -19 42 -21
147 -4 149 6 214 49 313 66 153 148 275 257 383 145 145 202 178 462 264 255
86 323 99 495 100 101 0 156 -6 250 -25 66 -14 179 -37 250 -50 296 -55 439
-103 822 -274 327 -146 564 -228 833 -289 223 -51 368 -67 600 -67 152 0 204
4 291 23 207 43 302 99 356 210 22 45 25 62 21 115 -6 75 -34 133 -117 242
-34 44 -77 110 -96 147 -50 94 -120 177 -354 416 -64 65 -177 116 -256 116
-105 -1 -193 -61 -238 -164 -11 -25 -24 -50 -29 -57 -18 -22 -67 7 -113 67
-64 84 -138 146 -201 169 -30 12 -59 21 -65 21 -5 0 -44 23 -86 51 -93 61
-131 81 -203 104 -58 18 -354 163 -399 194 -40 28 -105 59 -224 107 -123 49
-219 76 -352 98 -49 8 -144 28 -210 45 -66 17 -176 40 -245 51 -69 11 -165 29
-215 40 -136 30 -267 48 -416 60 -234 17 -292 19 -389 9z m3972 -4674 c20 -14
46 -44 59 -71 21 -45 22 -47 4 -60 -10 -8 -40 -14 -67 -14 -45 0 -50 3 -78 42
-36 49 -38 83 -7 109 29 25 46 24 89 -6z"/>
</g>
</svg>
