<?xml version="1.0" encoding="UTF-8" standalone="no"?>
<!-- Created with Inkscape (http://www.inkscape.org/) -->

<svg
   version="1.1"
   width="135.71559"
   height="60.495777"
   viewBox="0 0 135.7156 60.495776"
   id="Layer_1"
   xml:space="preserve"
   xmlns="http://www.w3.org/2000/svg"
   xmlns:svg="http://www.w3.org/2000/svg"><defs
   id="defs7" />
    
    <path
   d="m 19.083439,0.14034324 c 4.24,-0.738 15.666,1.65699996 18.615,2.02699996 2.949,0.37 12.717,7.74 12.717,7.74 0,0 4.607,1.8419998 17.51,-0.184 12.9,-2.027 17.51,-1.66 25.25,0.7359998 7.602001,2.354 24.699001,20.275 30.413001,30.412 3.765,6.684 8.108,6.635 8.108,6.635 0,0 -1.842,-1.658 -1.105,-3.316 0.736,-1.657 3.871,-1.106 4.792,0.552 0.921,1.657 0,5.162 -3.687,6.084 -3.686,0.921 -8.848,-4.425 -13.824,-12.903 -4.975,-8.478 -18.615001,-20.458 -18.615001,-20.458 0,0 1.290001,2.396 3.686001,6.082 2.397,3.686 6.637,17.326 8.479,18.062 1.843,0.737 3.502,0 4.056,1.106 0.553,1.106 0.553,2.396 2.027,5.529 1.475,3.132 0.368,9.952 -0.37,9.952 -0.737,0 -2.024,0.369 -2.948,1.475 -0.924,1.106 -4.055,-0.922 -4.055,-0.922 0,0 -2.027,-0.553 -2.027,-2.581 0,-2.028 2.949,-1.843 3.87,-2.396 0.921,-0.555 0.185,-3.687 -0.183,-4.422 -0.369,-0.737 -3.319,-1.66 -4.609,-3.504 -1.29,-1.843 -2.949,-1.475 -6.267,-3.871 -3.317001,-2.395 -15.481001,-9.951 -15.481001,-9.951 0,0 -5.294,5.021 -7.373,9.584 -2.926,6.418 -0.412,4.196 -0.197,7.328 0.111,1.631 -3.284,4.405 -5.935,6.062 -2.022,1.263 -2.142,3.461 -2.93,3.938 -1.197,0.723 -2.552,-0.188 -2.552,-0.188 0,0 -1.472,0.737 -2.578,-0.368 -1.107,-1.105 1.105,-2.581 2.027,-3.316 0.922,-0.736 2.764,-2.027 4.055,-3.871 1.289,-1.842 1.475,-4.422 0,-8.662 -1.476,-4.24 -0.922,-7.557 -0.922,-7.557 l -7.188,3.316 c 0,0 0.921,3.133 0.921,6.082 0,2.949 -0.553,6.082 0,8.295 0.555,2.212 0.555,3.686 -0.921,4.605 -1.476,0.922 -2.95,2.766 -4.056,3.136 -1.104,0.37 -2.766,-0.554 -2.766,-0.554 0,0 -2.027,0.184 -2.765,-1.106 -0.737,-1.289 2.028,-3.502 3.135,-4.606 1.107,-1.104 1.476,-3.871 -0.737,-7.373 -2.213,-3.502 -3.871,-7.188 -3.871,-7.188 l -3.5,0.186 c 0,0 -1.846,0.553 -2.768,0.553 -0.921,0 -2.211,-0.369 -2.211,-0.369 -1.107,0.921 -4.424,-0.184 -4.424,-0.184 0,0 -0.368,1.657 -1.844,2.579 -1.475,0.921 -3.133,0.186 -3.133,0.186 -1.656,2.765 -7.742,7.188 -9.584,8.848 -1.842,1.66 -3.871,4.054 -4.607,4.606 -0.738,0.554 -1.475,2.212 -2.396,2.212 -0.921,0 -0.922,1.291 -1.658,1.105 -0.735,-0.185 -3.133,0.921 -4.605,0.736 -1.475,-0.185 -2.213,-1.843 -2.213,-1.843 -0.553,-0.922 0.186,-2.579 1.475,-3.502 1.289,-0.92 2.211,0.736 3.502,0.369 1.293,-0.369 1.291,-0.922 2.211,-1.844 0.922,-0.921 2.95,-5.345 3.688,-7.005 0.736,-1.659 2.581,-5.528 3.134,-6.45 0.552,-0.921 1.106,-0.553 -0.553,-2.58 -1.66,-2.028 -1.66,-4.976 -1.66,-4.976 -0.737,-0.369 -0.735,-2.581 -0.735,-2.581 -1.291,0.368 -3.504,-0.737 -3.504,-0.737 -1.475,0.554 -2.211,-0.737 -2.211,-0.737 0,0 -1.658,-0.554 -2.949,-1.844 -1.289,-1.289 0.369,-3.317 -1.105,-4.606 -1.475,-1.29 -2.211,0.183 -2.211,0.183 0,0 -2.581,1.292 -4.239,0.368 -1.657,-0.923 -0.553,-3.868 -0.553,-3.868 -1.28999999,-0.922 -1.28999999,-2.949 -1.28999999,-2.949 -0.553,-0.369 -1.475,-1.844 -0.186,-2.765 C 1.944439,11.751343 7.106439,9.3553432 7.106439,9.3553432 c 0,0 0,0 0.92,-1.292 0.92,-1.291 4.791,-2.764 4.791,-2.764 -1.843,-3.871 2.026,-4.42399996 6.266,-5.15899996 z"
   id="path3" />
    
</svg>
